<svg enable-background="new 0 0 600 310" viewBox="0 0 600 310" xmlns="http://www.w3.org/2000/svg" xmlns:xlink="http://www.w3.org/1999/xlink"><mask id="a" height=".6" maskUnits="userSpaceOnUse" width="345.7" x="-1.7" y="74.1"><path clip-rule="evenodd" d="m-5.2 4.1h349.1v259.1h-349.1z" fill="#fff"/></mask><mask id="b" height="22.2" maskUnits="userSpaceOnUse" width="35.2" x="389.2" y="154.8"><path d="m425.5 158.9-23.4-2.2c-4.4-.4-8.6 1.7-9.5 4.7l-4.3 14.7c-.2.7.4 1.3 1.5 1.4l29.2 2.8c3.4.3 6.7-1.3 7.4-3.6l4.2-14c.6-2.3-1.9-3.5-5.1-3.8z" fill="#f48963"/></mask><mask id="c" height="191.3" maskUnits="userSpaceOnUse" width="121.9" x="478.3" y="53.8"><path d="m4-5h600v310h-600z" fill="url(#d)"/></mask><linearGradient id="d" gradientUnits="userSpaceOnUse" x1="543.1226" x2="601.3068" y1="150" y2="150"><stop offset=".2902" stop-color="#fff"/><stop offset=".3927" stop-color="#fbfbfb"/><stop offset=".4836" stop-color="#f1f1f1"/><stop offset=".5702" stop-color="#dedede"/><stop offset=".6541" stop-color="#c5c5c5"/><stop offset=".736" stop-color="#a4a4a4"/><stop offset=".8166" stop-color="#7b7b7b"/><stop offset=".8959" stop-color="#4c4c4c"/><stop offset=".9725" stop-color="#151515"/><stop offset="1"/></linearGradient><mask id="e" height="10.3" maskUnits="userSpaceOnUse" width="10.3" x="532" y="183.4"><path clip-rule="evenodd" d="m532 193.7v-10.3h10.3v10.3z" fill="#fff"/></mask><mask id="f" height="10.3" maskUnits="userSpaceOnUse" width="10.3" x="528.2" y="212.4"><path clip-rule="evenodd" d="m528.2 222.6v-10.3h10.3v10.3z" fill="#fff"/></mask><mask id="g" height="10.3" maskUnits="userSpaceOnUse" width="10.3" x="560.8" y="198.9"><path clip-rule="evenodd" d="m560.8 209.2v-10.3h10.3v10.3z" fill="#fff"/></mask><mask id="h" height="10.3" maskUnits="userSpaceOnUse" width="10.3" x="543.4" y="169.3"><path clip-rule="evenodd" d="m543.4 179.6v-10.3h10.3v10.3z" fill="#fff"/></mask><mask id="i" height="10.3" maskUnits="userSpaceOnUse" width="10.3" x="505.1" y="85.3"><path clip-rule="evenodd" d="m505.1 95.5v-10.2h10.3v10.3h-10.3z" fill="#fff"/></mask><mask id="j" height="10.3" maskUnits="userSpaceOnUse" width="10.3" x="495.2" y="112.8"><path clip-rule="evenodd" d="m495.2 123.1v-10.3h10.3v10.3z" fill="#fff"/></mask><mask id="k" height="10.3" maskUnits="userSpaceOnUse" width="10.3" x="527.9" y="97.4"><path clip-rule="evenodd" d="m527.9 107.6v-10.2h10.3v10.3h-10.3z" fill="#fff"/></mask><mask id="l" height="10.3" maskUnits="userSpaceOnUse" width="10.3" x="495" y="74.5"><path clip-rule="evenodd" d="m495 84.8v-10.3h10.3v10.3z" fill="#fff"/></mask><mask id="m" height="17.8" maskUnits="userSpaceOnUse" width="17.8" x="530" y="53.8"><path clip-rule="evenodd" d="m530 71.5v-17.7h17.8v17.8h-17.8z" fill="#fff"/></mask><mask id="n" height="17.8" maskUnits="userSpaceOnUse" width="17.8" x="516.3" y="144.4"><path clip-rule="evenodd" d="m516.3 162.2v-17.8h17.8v17.8z" fill="#fff"/></mask><mask id="o" height="17.8" maskUnits="userSpaceOnUse" width="17.8" x="478.3" y="124.2"><path clip-rule="evenodd" d="m478.3 142v-17.8h17.7v17.8z" fill="#fff"/></mask><mask id="p" height="17.8" maskUnits="userSpaceOnUse" width="17.8" x="481.5" y="227.3"><path clip-rule="evenodd" d="m481.5 245v-17.8h17.8v17.8z" fill="#fff"/></mask><path clip-rule="evenodd" d="m14.4 6.6h454.5v286.3h-454.5z" fill="#f4f4f4"/><g transform="translate(125 17)"><path clip-rule="evenodd" d="m-5.4 3.7h349.3v259.4h-349.3z" fill="#fff"/><path clip-rule="evenodd" d="m-1.7 74.1h345.7v.6h-345.7z" fill="#dcdcdc" mask="url(#a)"/><path clip-rule="evenodd" d="m.1 74.7h13.8v188h-13.8z" fill="#f4f4f4"/><path d="m122.5 28.2h-36.1v-9.8c0-1.3 1.1-2.4 2.4-2.4h31.3c1.3 0 2.4 1.1 2.4 2.4zm-35.5-.6h34.9v-9.2c0-1-.8-1.8-1.8-1.8h-31.3c-1 0-1.8.8-1.8 1.8z" fill="#e6e6e5"/><path d="m139.6 28.2h-14.1v-9.8c0-1.3 1.1-2.4 2.4-2.4h9.3c1.3 0 2.4 1.1 2.4 2.4zm-13.5-.6h12.9v-9.2c0-1-.8-1.8-1.8-1.8h-9.3c-1 0-1.8.8-1.8 1.8z" fill="#e6e6e5"/><g transform="matrix(1 0 0 -1 0 44)"><path clip-rule="evenodd" d="m9.3 25.8v-9.9h34.3v9.9c0 .9-.8 1.7-1.7 1.7h-30.9c-1-.1-1.7-.8-1.7-1.7z" fill="#fafbfc"/><path d="m44.2 14.6h-36.1v11.1c0 1.3 1.1 2.4 2.4 2.4h31.3c1.3 0 2.4-1.1 2.4-2.4zm-35.5.6h34.9v10.4c0 1-.8 1.8-1.8 1.8h-31.3c-1 0-1.8-.8-1.8-1.8z" fill="#dcdcdc"/></g><path d="m83.3 28.2h-36.1v-9.8c0-1.3 1.1-2.4 2.4-2.4h31.3c1.3 0 2.4 1.1 2.4 2.4zm-35.5-.6h34.9v-9.2c0-1-.8-1.8-1.8-1.8h-31.3c-1 0-1.8.8-1.8 1.8z" fill="#e6e6e5"/><g clip-rule="evenodd"><path d="m.1 27.6h343.8v46.5h-343.8z" fill="#fafbfc"/><path d="m.1 27.6h9.2v.6h-9.2z" fill="#dcdcdc"/><path d="m43.6 27.6h300.4v.6h-300.4z" fill="#dcdcdc"/><path d="m317 66.1h15.3v4.3h-15.3z" fill="#f36b3a"/><path d="m288.3 66.1h18.4v4.3h-18.4z" fill="#f36b3a"/><path d="m262.8 11h49.1c.5 0 .8.4.8.8v9.3c0 .5-.4.8-.8.8h-49.1c-.5 0-.8-.4-.8-.8v-9.3c0-.4.3-.8.8-.8z" fill="#f1f0f0"/></g><path d="m311.6 22.1h-47.9c-.6 0-1.1-.5-1.1-1.1v-8.7c0-.6.5-1.1 1.1-1.1h47.9c.6 0 1.1.5 1.1 1.1v8.7c0 .5-.5 1.1-1.1 1.1zm-47.9-10.4c-.3 0-.5.2-.5.5v8.7c0 .3.2.5.5.5h47.9c.3 0 .5-.2.5-.5v-8.7c0-.3-.2-.5-.5-.5z" fill="#dcdcdc"/><path clip-rule="evenodd" d="m316 11h9.3c.5 0 .8.4.8.8v9.3c0 .5-.4.8-.8.8h-9.3c-.5 0-.8-.4-.8-.8v-9.3c0-.4.4-.8.8-.8z" fill="#f1f0f0"/><path clip-rule="evenodd" d="m329.5 11h9.3c.5 0 .8.4.8.8v9.3c0 .5-.4.8-.8.8h-9.3c-.5 0-.8-.4-.8-.8v-9.3c-.1-.4.3-.8.8-.8z" fill="#f1f0f0"/><path clip-rule="evenodd" d="m.1 74.7h13.8v6.1h-13.8z" fill="#dcdcdc"/></g><path clip-rule="evenodd" d="m14.4 6.6h454.5v17.7h-454.5z" fill="#010101"/><path clip-rule="evenodd" d="m14.4 6.6h454.5v17.7h-454.5z" fill="#333"/><circle clip-rule="evenodd" cx="460" cy="15.6" fill="#7d728e" r="4.6"/><circle clip-rule="evenodd" cx="442.4" cy="15.6" fill="#555554" r="4.6"/><circle clip-rule="evenodd" cx="431.4" cy="15.6" fill="#555554" r="4.6"/><circle clip-rule="evenodd" cx="420.5" cy="15.6" fill="#555554" r="4.6"/><circle clip-rule="evenodd" cx="379.3" cy="15.6" fill="#f36b3a" r="4.6"/><circle clip-rule="evenodd" cx="368.4" cy="15.6" fill="#555554" r="4.6"/><path clip-rule="evenodd" d="m48.4 10.3h-27.7c-.5 0-.8.4-.8.8v9.3c0 .5.4.8.8.8h27.7c.5 0 .8-.4.8-.8v-9.3c.1-.4-.3-.8-.8-.8z" fill="#f36b3a"/><path clip-rule="evenodd" d="m71.7 10.3h-20.4c-.5 0-.8.4-.8.8v9.3c0 .5.4.8.8.8h20.3c.5 0 .8-.4.8-.8v-9.3c.1-.4-.3-.8-.7-.8z" fill="#fff" opacity=".1"/><path clip-rule="evenodd" d="m95.5 10.3h-20.3c-.5 0-.8.4-.8.8v9.3c0 .5.4.8.8.8h20.3c.5 0 .8-.4.8-.8v-9.3c.1-.4-.3-.8-.8-.8z" fill="#fff" opacity=".1"/><path clip-rule="evenodd" d="m109.6 10.3h-11.2c-.5 0-.8.4-.8.8v9.3c0 .5.4.8.8.8h11.2c.5 0 .8-.4.8-.8v-9.3c0-.4-.3-.8-.8-.8z" fill="#fff" opacity=".1"/><g fill="#fff" transform="translate(236 5)"><g clip-rule="evenodd"><path d="m-21.9 5.9h2.6c.5 0 .8.4.8.8v2.6c0 .5-.4.8-.8.8h-2.6c-.5 0-.8-.4-.8-.8v-2.5c-.1-.5.3-.9.8-.9z"/><path d="m-21.9 10.8h2.6c.5 0 .8.4.8.8v2.6c0 .5-.4.8-.8.8h-2.6c-.5 0-.8-.4-.8-.8v-2.6c-.1-.4.3-.8.8-.8z"/><path d="m-17.1 5.9h2.6c.5 0 .8.4.8.8v2.6c0 .5-.4.8-.8.8h-2.6c-.5 0-.8-.4-.8-.8v-2.5c0-.5.4-.9.8-.9z"/><path d="m-17.1 10.8h2.6c.5 0 .8.4.8.8v2.6c0 .5-.4.8-.8.8h-2.6c-.5 0-.8-.4-.8-.8v-2.6c0-.4.4-.8.8-.8z"/><path d="m35.2 10.2-2.5 2.5-2.6-2.5z"/></g><path d="m-7.6 12-.8-2.7v1.1 1.6h-.6v-3.5h1l.8 2.7.9-2.7h1v3.5h-.7v-1.7c0-.1 0-.2 0-.3s0-.4 0-.8l-.9 2.8z"/><path d="m-4.9 9.3h.8l.5 1.5c0 .1.1.3.1.5 0-.2.1-.3.1-.5l.5-1.5h.8l-1.1 3c-.1.3-.3.5-.4.6-.2.1-.4.2-.7.2-.1 0-.2 0-.4 0v-.6h.3c.1 0 .2 0 .3-.1s.2-.2.2-.4v-.1z"/><path d="m3 12h-.8l-.5-1.8c0-.1 0-.2-.1-.4 0-.2-.1-.3-.1-.4 0 .1 0 .2-.1.4 0 .2-.1.3-.1.4l-.4 1.8h-.8l-.9-3.5h.7l.4 1.9c.1.4.1.7.2.9 0-.1 0-.2.1-.4 0-.2.1-.3.1-.4l.5-2h.7l.5 2c0 .1.1.2.1.4s.1.3.1.5c0-.1 0-.3.1-.5 0-.2.1-.3.1-.5l.4-1.9h.7z"/><path d="m6.8 10.7c0 .4-.1.8-.3 1s-.5.4-1 .4c-.3 0-.5-.1-.7-.2s-.3-.3-.5-.5-.1-.4-.1-.7c0-.4.1-.8.3-1s.5-.4 1-.4c.3 0 .5.1.7.2s.3.3.5.5c0 .2.1.4.1.7zm-1.9 0c0 .3 0 .5.1.6s.2.2.4.2.3-.1.4-.2c.2-.2.2-.4.2-.6 0-.3 0-.5-.1-.6s-.3-.2-.4-.2c-.2 0-.4.1-.5.2s-.1.3-.1.6z"/><path d="m8.8 9.3h.2v.7c-.1 0-.1 0-.2 0-.2 0-.4.1-.5.2s-.2.3-.2.5v1.3h-.7v-2.7h.6v.5c.1-.2.2-.3.3-.4s.4-.1.5-.1z"/><path d="m10.3 10.6.3-.4.7-.8h.8l-1.1 1.2 1.1 1.5h-.8l-.8-1.1-.3.3v.7h-.6v-3.7h.7v1.7z"/><path d="m14.5 11.2c0 .3-.1.5-.3.6s-.5.2-.9.2c-.2 0-.4 0-.5 0s-.3-.1-.4-.1v-.6c.1.1.3.1.5.2.2 0 .3.1.4.1.3 0 .4-.1.4-.2s0-.1-.1-.1c0 0-.1-.1-.2-.1s-.2-.1-.3-.2c-.2-.1-.4-.2-.5-.2-.1-.1-.2-.2-.2-.3s-.1-.2-.1-.4.1-.4.3-.6.4-.2.8-.2c.3 0 .6.1.9.2l-.1.5c-.1 0-.2-.1-.3-.1s-.2-.1-.4-.1-.3.1-.3.2 0 .1.1.2c.1 0 .2.1.5.2.2.1.4.2.5.2.1.1.2.2.2.3z"/><path d="m16.5 12.1c-.3 0-.6-.1-.7-.3v.4 1.1h-.7v-4h.6l.1.3c.2-.3.4-.4.8-.4.3 0 .6.1.7.4s.3.6.3 1c0 .3 0 .5-.1.7s-.2.4-.4.5c-.2.2-.4.3-.6.3zm-.2-2.2c-.2 0-.3.1-.4.2s-.1.3-.1.5v.1c0 .3 0 .5.1.6s.2.2.4.2c.3 0 .5-.3.5-.8 0-.3 0-.5-.1-.6-.1-.2-.2-.2-.4-.2z"/><path d="m19.9 12-.1-.4c-.1.2-.2.3-.4.3-.1.1-.3.1-.5.1-.3 0-.5-.1-.6-.2s-.3-.3-.3-.6.1-.5.3-.6.5-.2.9-.2h.5v-.1c0-.3-.1-.4-.4-.4-.2 0-.5.1-.8.2l-.2-.5c.3-.2.6-.2 1-.2s.6.1.8.2c.2.2.3.4.3.7v1.7zm-.3-1.2h-.3c-.2 0-.4 0-.5.1s-.2.2-.2.3c0 .2.1.3.4.3.2 0 .3 0 .4-.1s.2-.2.2-.4z"/><path d="m22.2 12.1c-.8 0-1.2-.5-1.2-1.4 0-.5.1-.8.3-1s.6-.4 1-.4c.3 0 .6.1.8.2l-.2.5c-.1 0-.2-.1-.3-.1s-.2 0-.3 0c-.4 0-.6.3-.6.8s.2.8.6.8c.1 0 .3 0 .4-.1.1 0 .2-.1.4-.2v.6c-.1.1-.2.1-.4.2s-.3.1-.5.1z"/><path d="m24.8 12.1c-.4 0-.8-.1-1-.4-.2-.2-.4-.6-.4-1s.1-.8.3-1 .5-.4.9-.4.7.1.9.3.3.5.3.9v.4h-1.7c0 .2.1.4.2.5s.3.2.5.2.3 0 .5-.1.3-.1.4-.2v.6c-.1.1-.3.1-.4.1-.1.1-.2.1-.5.1zm-.1-2.3c-.2 0-.3 0-.4.1s-.1.2-.2.4h1c0-.2-.1-.3-.1-.4 0 0-.1-.1-.3-.1z"/></g><path clip-rule="evenodd" d="m14.4 280.1h454.5v12.8h-454.5z" fill="#fafbfc"/><ellipse clip-rule="evenodd" cx="25.1" cy="286.5" fill="#676767" opacity=".2286" rx="2.1" ry="2.1"/><circle clip-rule="evenodd" cx="40.3" cy="286.5" fill="#676767" opacity=".2286" r="2.1"/><circle clip-rule="evenodd" cx="458.4" cy="286.5" fill="#676767" opacity=".2286" r="2.1"/><circle clip-rule="evenodd" cx="435.7" cy="286.5" fill="#676767" opacity=".2286" r="2.1"/><path clip-rule="evenodd" d="m30.3 284.4h4.3v4.3h-4.3z" fill="#676767" opacity=".2286"/><path clip-rule="evenodd" d="m448.1 285h6.7v2.4h-6.7z" fill="#676767" opacity=".2286"/><path clip-rule="evenodd" d="m439.6 284.4h6.7v4.3h-6.7z" fill="#676767" opacity=".2286"/><path clip-rule="evenodd" d="m14.4 279.5h454.5v.6h-454.5z" fill="#e6e6e5"/><path clip-rule="evenodd" d="m124.5 75.2h342.4v.6h-342.4z" fill="#e6e6e5"/><path clip-rule="evenodd" d="m135.9 66.5h1.7v4.1h-1.7z" fill="#f36c3d" transform="matrix(.7071 .7071 -.7071 .7071 88.5607 -76.6519)"/><path clip-rule="evenodd" d="m134.2 71.2 1.6-.4-1.2-1.2z" fill="#f36c3d"/><path d="m144.7 69c0 .7-.2 1.3-.6 1.7s-1 .6-1.7.6h-1.2v-4.4h1.3c.7 0 1.2.2 1.6.6.4.2.6.8.6 1.5zm-.6 0c0-.6-.1-1-.4-1.3s-.7-.4-1.3-.4h-.7v3.5h.6c.6 0 1.1-.2 1.4-.5s.4-.7.4-1.3z" fill="#f36c3d"/><path d="m147 71.3c-.5 0-.9-.1-1.2-.4s-.4-.7-.4-1.2.1-1 .4-1.3.6-.5 1.1-.5c.4 0 .7.1 1 .4.2.3.4.6.4 1.1v.3h-2.3c0 .4.1.7.3.9s.4.3.8.3.7-.1 1.1-.2v.3c-.2.1-.3.1-.5.2-.3 0-.5.1-.7.1zm-.1-3c-.3 0-.5.1-.6.3-.2.2-.3.4-.3.7h1.7c0-.3-.1-.6-.2-.7-.2-.3-.4-.3-.6-.3z" fill="#f36c3d"/><path d="m150.5 68.3h-.8v2.9h-.5v-2.9h-.6v-.2l.6-.2v-.2c0-.8.4-1.2 1.1-1.2.2 0 .4 0 .6.1l-.1.4c-.2-.1-.4-.1-.5-.1-.2 0-.3.1-.4.2s-.1.3-.1.6v.2h.8v.4zm.6-1.3c0-.1 0-.2.1-.3s.1-.1.2-.1.1 0 .2.1.1.1.1.3c0 .1 0 .2-.1.3s-.1.1-.2.1-.2 0-.2-.1c-.1-.1-.1-.2-.1-.3zm.6 4.2h-.5v-3.3h.5z" fill="#f36c3d"/><path d="m155 71.2v-2.1c0-.3-.1-.5-.2-.6s-.3-.2-.6-.2-.6.1-.8.3-.2.5-.2.9v1.7h-.5v-3.3h.4l.1.5c.1-.2.2-.3.4-.4s.4-.1.6-.1c.4 0 .7.1.9.3s.3.5.3.9v2.2h-.4z" fill="#f36c3d"/><path d="m157.9 71.3c-.5 0-.9-.1-1.2-.4s-.4-.7-.4-1.2.1-1 .4-1.3.6-.5 1.1-.5c.4 0 .7.1 1 .4.2.3.4.6.4 1.1v.3h-2.3c0 .4.1.7.3.9s.4.3.8.3.7-.1 1.1-.2v.3c-.2.1-.3.1-.5.2-.3 0-.5.1-.7.1zm-.1-3c-.3 0-.5.1-.6.3-.2.2-.3.4-.3.7h1.7c0-.3-.1-.6-.2-.7-.2-.3-.4-.3-.6-.3z" fill="#f36c3d"/><path clip-rule="evenodd" d="m165.7 67.7h26.9v3.7h-26.9z" fill="#ececec"/><path clip-rule="evenodd" d="m228.9 67.7h15.3v3.7h-15.3z" fill="#ececec"/><path clip-rule="evenodd" d="m288.8 67.7h15.3v3.7h-15.3z" fill="#ececec"/><path clip-rule="evenodd" d="m203.6 67.7h18.4v3.7h-18.4z" fill="#ececec"/><path clip-rule="evenodd" d="m134.3 74.2h25.1v.9h-25.1z" fill="#f36b3a"/><path clip-rule="evenodd" d="m253.4 67.7h25.1v3.7h-25.1z" fill="#ececec"/><path clip-rule="evenodd" d="m185.2 61.9h-18.3c-.7 0-1.2-.5-1.2-1.2v-7.5c0-.7.5-1.2 1.2-1.2h18.3c.7 0 1.2.5 1.2 1.2v7.5c0 .7-.5 1.2-1.2 1.2z" fill="#ececec"/><path d="m137.6 59.2-.3-1.1h-1.6l-.3 1.1h-1l1.6-4.4h1.1l1.6 4.4zm-.6-1.9c-.3-1-.5-1.5-.5-1.6s-.1-.2-.1-.3c-.1.3-.3.9-.6 1.9z" fill="#adadad"/><path d="m142.2 56.1c0 .5-.1.8-.4 1.1s-.7.4-1.3.4h-.4v1.6h-.9v-4.4h1.4c.5 0 .9.1 1.2.3s.4.6.4 1zm-2.1.7h.3c.3 0 .5-.1.6-.2s.2-.3.2-.5-.1-.4-.2-.5-.3-.2-.6-.2h-.4v1.4z" fill="#adadad"/><path d="m143 59.2v-4.4h.9v4.4z" fill="#adadad"/><path d="m144.7 57.9v-.8h1.6v.8z" fill="#adadad"/><path d="m148.4 56.4c.4 0 .8.1 1 .4s.4.6.4 1c0 .5-.2.9-.5 1.1-.3.3-.7.4-1.3.4-.5 0-.9-.1-1.2-.2v-.8c.2.1.3.2.6.2s.4.1.6.1c.6 0 .9-.2.9-.7 0-.4-.3-.7-.9-.7-.1 0-.2 0-.4 0-.1 0-.2 0-.3.1l-.4-.2.2-2.2h2.4v.8h-1.6l-.1.9h.1c.1-.2.3-.2.5-.2z" fill="#adadad"/><path d="m153.3 57c0 .8-.1 1.3-.4 1.7s-.6.6-1.2.6c-.5 0-.9-.2-1.2-.6s-.4-.9-.4-1.7.1-1.4.4-1.7c.3-.4.6-.6 1.2-.6.5 0 .9.2 1.2.6s.4.9.4 1.7zm-2.1 0c0 .5 0 .9.1 1.2.1.2.3.4.5.4s.4-.1.5-.4c.1-.2.1-.6.1-1.2 0-.5 0-.9-.1-1.2-.1-.2-.3-.4-.5-.4s-.4.1-.5.4c-.1.2-.1.6-.1 1.2z" fill="#adadad"/><path d="m156.9 57c0 .8-.1 1.3-.4 1.7s-.6.6-1.2.6c-.5 0-.9-.2-1.2-.6s-.4-.9-.4-1.7.1-1.4.4-1.7c.3-.4.6-.6 1.2-.6.5 0 .9.2 1.2.6s.4.9.4 1.7zm-2.2 0c0 .5 0 .9.1 1.2.1.2.3.4.5.4s.4-.1.5-.4c.1-.2.1-.6.1-1.2 0-.5 0-.9-.1-1.2-.1-.2-.3-.4-.5-.4s-.4.1-.5.4c0 .2-.1.6-.1 1.2z" fill="#adadad"/><path d="m160.4 57c0 .8-.1 1.3-.4 1.7s-.6.6-1.2.6c-.5 0-.9-.2-1.2-.6s-.4-.9-.4-1.7.1-1.4.4-1.7c.3-.4.6-.6 1.2-.6.5 0 .9.2 1.2.6s.4.9.4 1.7zm-2.2 0c0 .5 0 .9.1 1.2.1.2.3.4.5.4s.4-.1.5-.4c.1-.2.1-.6.1-1.2 0-.5 0-.9-.1-1.2-.1-.2-.3-.4-.5-.4s-.4.1-.5.4c0 .2-.1.6-.1 1.2z" fill="#adadad"/><path d="m137 84.5c0 .4-.1.7-.4.9s-.6.3-1.1.3-.9-.1-1.2-.2v-.5c.2.1.4.1.6.2.2 0 .4.1.6.1.3 0 .6-.1.8-.2s.3-.3.3-.5c0-.1 0-.3-.1-.4s-.2-.2-.3-.3-.4-.2-.6-.3c-.4-.1-.7-.3-.9-.5s-.3-.5-.3-.8.1-.6.4-.8c.2-.2.6-.3 1-.3s.8.1 1.2.2l-.2.4c-.4-.1-.7-.2-1-.2s-.5.1-.6.2-.2.3-.2.5c0 .1 0 .3.1.4s.1.2.3.3c.1.1.3.2.6.3.5.2.8.3.9.5s.1.4.1.7z" fill="#adadad"/><path d="m139.1 85.7c-.5 0-.8-.1-1.1-.4s-.4-.7-.4-1.2.1-1 .4-1.3.6-.4 1.1-.4h.5c.2 0 .3.1.4.1l-.1.4c-.1 0-.2-.1-.4-.1-.1 0-.2 0-.3 0-.7 0-1 .4-1 1.3 0 .4.1.7.2.9.2.2.4.3.7.3s.5-.1.8-.2v.4c-.2.1-.4.2-.8.2z" fill="#adadad"/><path d="m142.9 85.6v-2.1c0-.3-.1-.5-.2-.6s-.3-.2-.6-.2-.6.1-.7.3c-.2.2-.2.5-.2.9v1.7h-.5v-4.6h.5v1.4.4c.1-.2.2-.3.4-.4s.4-.1.6-.1c.4 0 .7.1.9.3s.3.5.3.9v2.1z" fill="#adadad"/><path d="m145.8 85.7c-.5 0-.9-.1-1.1-.4-.3-.3-.4-.7-.4-1.2s.1-.9.4-1.2.6-.5 1-.5.7.1 1 .4c.2.3.4.6.4 1.1v.3h-2.2c0 .4.1.7.3.9s.4.3.8.3c.3 0 .7-.1 1-.2v.4c-.2.1-.3.1-.5.2-.3-.1-.5-.1-.7-.1zm-.2-2.9c-.3 0-.5.1-.6.3s-.2.4-.3.7h1.7c0-.3-.1-.5-.2-.7-.1-.3-.3-.3-.6-.3z" fill="#adadad"/><path d="m151.9 85.6v-2.1c0-.3-.1-.4-.2-.6-.1-.1-.3-.2-.5-.2-.3 0-.5.1-.7.3-.1.2-.2.4-.2.8v1.8h-.5v-2.1c0-.3-.1-.4-.2-.6-.1-.1-.3-.2-.5-.2-.3 0-.5.1-.7.3-.1.2-.2.5-.2.9v1.7h-.5v-3.2h.4l.1.4c.1-.2.2-.3.4-.4s.4-.1.6-.1c.5 0 .8.2 1 .5.1-.2.2-.3.4-.4s.4-.1.6-.1c.4 0 .6.1.8.3s.3.5.3.9v2.1z" fill="#adadad"/><path d="m155.4 85.6-.1-.5c-.2.2-.3.3-.5.4s-.4.1-.6.1c-.3 0-.6-.1-.8-.2-.2-.2-.3-.4-.3-.7 0-.7.5-1 1.6-1h.5v-.2c0-.3-.1-.4-.2-.6-.1-.1-.3-.2-.5-.2-.3 0-.6.1-.9.2l-.2-.4c.2-.1.3-.2.5-.2s.4-.1.6-.1c.4 0 .7.1.9.3s.3.4.3.8v2.2h-.3zm-1.1-.3c.3 0 .5-.1.7-.2.2-.2.3-.4.3-.7v-.4h-.5c-.4 0-.7.1-.8.2-.2.1-.3.3-.3.5s.1.3.2.4c0 .1.2.2.4.2z" fill="#adadad"/><path d="m169.6 83.5c0 .7-.2 1.2-.5 1.6s-.8.5-1.4.5-1.1-.2-1.4-.5c-.3-.4-.5-.9-.5-1.6s.2-1.2.5-1.6.8-.5 1.4-.5 1.1.2 1.4.5c.3.4.5 1 .5 1.6zm-3 0c0 .5.1.8.3 1s.4.3.8.3c.7 0 1-.5 1-1.4s-.3-1.4-1-1.4c-.3 0-.6.1-.8.3-.2.4-.3.8-.3 1.2z" fill="#f36c3d"/><path d="m172.1 85.7c-.4 0-.7-.1-.9-.4v.5 1.2h-.9v-4.5h.7l.1.4c.2-.3.5-.5.9-.5s.7.1.9.4.3.7.3 1.2c0 .3 0 .6-.1.9-.1.2-.2.4-.4.6-.2.1-.4.2-.6.2zm-.3-2.6c-.2 0-.4.1-.5.2s-.1.3-.2.6v.1c0 .3.1.6.1.7.1.1.3.2.5.2.4 0 .6-.3.6-.9 0-.3 0-.5-.1-.7 0-.1-.2-.2-.4-.2z" fill="#f36c3d"/><path d="m175.4 85.7c-.5 0-.9-.1-1.2-.4s-.4-.7-.4-1.2.1-.9.4-1.2.6-.4 1.1-.4c.4 0 .8.1 1 .4s.4.6.4 1v.4h-2c0 .2.1.4.2.6.1.1.3.2.6.2.2 0 .4 0 .5-.1.2 0 .3-.1.5-.2v.7c-.1.1-.3.1-.5.2-.2-.1-.4 0-.6 0zm-.1-2.7c-.2 0-.3.1-.4.2s-.2.3-.2.5h1.2c0-.2-.1-.4-.2-.5s-.3-.2-.4-.2z" fill="#f36c3d"/><path d="m180.2 85.6h-.9v-1.8c0-.2 0-.4-.1-.5s-.2-.2-.4-.2-.4.1-.5.2c-.1.2-.2.4-.2.8v1.5h-.9v-3.1h.7l.1.4c.1-.2.2-.3.4-.3.2-.1.4-.1.6-.1.4 0 .6.1.8.3s.3.5.3.9v1.9z" fill="#f36c3d"/><path d="m183.7 85.6-.3-1h-1.5l-.3 1h-.9l1.4-4.1h1.1l1.4 4.1zm-.5-1.7c-.3-.9-.4-1.4-.5-1.5 0-.1-.1-.2-.1-.3-.1.2-.2.8-.5 1.8z" fill="#f36c3d"/><path d="m188 82.8c0 .4-.1.8-.4 1s-.7.3-1.2.3h-.4v1.5h-.9v-4.1h1.3c.5 0 .9.1 1.1.3s.5.6.5 1zm-2 .6h.3c.3 0 .5-.1.6-.2s.2-.3.2-.5-.1-.4-.2-.5-.3-.1-.5-.1h-.4z" fill="#f36c3d"/><path d="m188.7 85.6v-4.1h.9v4.1z" fill="#f36c3d"/><path d="m194.5 82.4c0 .3-.1.5-.2.7-.2.2-.4.3-.7.4.3 0 .6.1.8.3s.3.4.3.6c0 .4-.1.7-.4.9s-.7.3-1.2.3c-.4 0-.8-.1-1.2-.2v-.7c.2.1.3.1.5.2s.4.1.6.1c.3 0 .5 0 .6-.1s.2-.3.2-.5-.1-.3-.2-.4c-.2-.1-.4-.1-.8-.1h-.3v-.7h.3c.3 0 .5 0 .7-.1.1-.1.2-.2.2-.4 0-.3-.2-.5-.6-.5-.1 0-.3 0-.4.1-.1 0-.3.1-.5.2l-.4-.6c.4-.3.8-.4 1.3-.4.4 0 .8.1 1 .3.3.1.4.3.4.6z" fill="#f36c3d"/><path d="m195.2 85.2c0-.2 0-.3.1-.4s.2-.1.4-.1.3 0 .4.1.1.2.1.4c0 .1 0 .3-.1.3-.1.1-.2.1-.4.1s-.3 0-.4-.1c-.1 0-.1-.2-.1-.3z" fill="#f36c3d"/><path d="m199.6 83.6c0 .7-.1 1.2-.4 1.6-.2.3-.6.5-1.1.5s-.8-.2-1.1-.5c-.2-.4-.4-.9-.4-1.6s.1-1.3.3-1.6.6-.5 1.1-.5.8.2 1.1.5c.4.3.5.9.5 1.6zm-2 0c0 .5 0 .9.1 1.1s.2.3.4.3.3-.1.4-.3.1-.6.1-1.1 0-.9-.1-1.1-.2-.3-.4-.3-.3.1-.4.3-.1.5-.1 1.1z" fill="#f36c3d"/><path clip-rule="evenodd" d="m204.6 84.5 2.3-1.9h-4.6z" fill="#adadad"/><path d="m73.5 6.6h58.6v286.9h-58.6z" fill="#231f20" opacity=".25"/><g transform="translate(0 17)"><g clip-rule="evenodd"><path d="m9.8 2.2h114.6v279.5h-114.6z" fill="#010101"/><path d="m9.8 2.2h114.6v279.5h-114.6z" fill="#f6f6f6"/><path d="m9.8-.9h114.6v56h-114.6z" fill="#f1f0f0"/><path d="m10.4 39.8h112.7v.6h-112.7z" fill="#e5e5e5"/><path d="m48.9 28.3h28.6v3.8h-28.6z" fill="#818181"/><path d="m16.1 28.3h28.6v3.8h-28.6z" fill="#818181"/><path d="m16.1 46.2h8.9v3.8h-8.9z" fill="#818181"/><path d="m28.9 46.2h8.9v3.8h-8.9z" fill="#989898"/><path d="m42.2 46.2h8.9v3.8h-8.9z" fill="#989898"/><path d="m109.9 44.3h7.2c.5 0 .9.4.9.9v5.3c0 .5-.4.9-.9.9h-7.2c-.5 0-.9-.4-.9-.9v-5.3c.1-.6.5-.9.9-.9z" fill="#989898"/><path d="m99.1 44.3h7.2c.5 0 .9.4.9.9v5.3c0 .5-.4.9-.9.9h-7.2c-.5 0-.9-.4-.9-.9v-5.3c0-.6.4-.9.9-.9z" fill="#989898"/><path d="m22.4 9.6h89.9c3.2 0 5.7 2.6 5.7 5.7 0 3.2-2.6 5.7-5.7 5.7h-89.9c-3.2 0-5.7-2.6-5.7-5.7-.1-3.2 2.5-5.7 5.7-5.7z" fill="#f1f0f0"/></g><path d="m112.3 21.3h-89.9c-3.3 0-6-2.7-6-6s2.7-6 6-6h89.9c3.3 0 6 2.7 6 6s-2.7 6-6 6zm-89.9-11.4c-3 0-5.4 2.4-5.4 5.4s2.4 5.4 5.4 5.4h89.9c3 0 5.4-2.4 5.4-5.4s-2.4-5.4-5.4-5.4z" fill="#e5e5e5"/><path clip-rule="evenodd" d="m81.7 37.9h42.7v1.9h-42.7z" fill="#f36b3a"/><g clip-rule="evenodd" transform="translate(7 74)"><path d="m23.8-10.6h46.5v3.8h-46.5z" fill="#515151"/><path d="m23.8-5.6h17.8v1.9h-17.8z" fill="#818181" opacity=".8"/><path d="m10-10.6h7.2c.5 0 .9.4.9.9v5.3c0 .5-.4.9-.9.9h-7.2c-.5-.1-.9-.5-.9-1v-5.3c0-.5.4-.8.9-.8z" fill="#e5e5e5"/></g><g clip-rule="evenodd" transform="translate(7 102)"><path d="m24.4-13.8h63.7v3.8h-63.7z" fill="#515151"/><path d="m23.8-8.7h17.8v1.9h-17.8z" fill="#818181"/><path d="m10-13.8h7.2c.5 0 .9.4.9.9v5.3c0 .5-.4.9-.9.9h-7.2c-.5 0-.9-.4-.9-.9v-5.3c0-.5.4-.9.9-.9z" fill="#e5e5e5"/></g><g clip-rule="evenodd" transform="translate(7 130)"><path d="m23.8-17.6h46.5v3.8h-46.5z" fill="#515151"/><path d="m23.8-12.5h17.8v1.9h-17.8z" fill="#818181"/><path d="m10-17.6h7.2c.5 0 .9.4.9.9v5.3c0 .5-.4.9-.9.9h-7.2c-.5 0-.9-.4-.9-.9v-5.3c0-.5.4-.9.9-.9z" fill="#e5e5e5"/></g><g clip-rule="evenodd" transform="translate(7 187)"><path d="m23.8-24.3h37.6v3.8h-37.6z" fill="#515151"/><path d="m23.8-19.2h17.8v1.9h-17.8z" fill="#818181"/><path d="m10-24.3h7.2c.5 0 .9.4.9.9v5.3c0 .5-.4.9-.9.9h-7.2c-.5 0-.9-.4-.9-.9v-5.3c0-.5.4-.9.9-.9z" fill="#e5e5e5"/></g><g clip-rule="evenodd" transform="translate(7 215)"><path d="m23.8-28.1h49v3.8h-49z" fill="#515151"/><path d="m23.8-23.1h17.8v1.9h-17.8z" fill="#818181"/><path d="m10-28.1h7.2c.5 0 .9.4.9.9v5.3c0 .5-.4.9-.9.9h-7.2c-.5 0-.9-.4-.9-.9v-5.3c0-.6.4-.9.9-.9z" fill="#e5e5e5"/></g></g><path clip-rule="evenodd" d="m9.1.1h116v18.5h-116z" fill="#333"/><path clip-rule="evenodd" d="m45.2 4.6h-28.8c-.5 0-.9.4-.9.9v9.7c0 .5.4.9.9.9h28.8c.5 0 .9-.4.9-.9v-9.7c-.1-.5-.4-.9-.9-.9z" fill="#f36b3a"/><path clip-rule="evenodd" d="m69.4 4.6h-21.2c-.5 0-.9.4-.9.9v9.7c0 .5.4.9.9.9h21.2c.5 0 .9-.4.9-.9v-9.7c-.1-.5-.5-.9-.9-.9z" fill="#fff" opacity=".1"/><path clip-rule="evenodd" d="m94.2 4.6h-21.2c-.5 0-.9.4-.9.9v9.7c0 .5.4.9.9.9h21.2c.5 0 .9-.4.9-.9v-9.7c0-.5-.4-.9-.9-.9z" fill="#fff" opacity=".1"/><path clip-rule="evenodd" d="m108.8 4.6h-11.6c-.5 0-.9.4-.9.9v9.7c0 .5.4.9.9.9h11.6c.5 0 .9-.4.9-.9v-9.7c0-.5-.4-.9-.9-.9z" fill="#fff" opacity=".1"/><path clip-rule="evenodd" d="m9.8 285.3h114.6v13.4h-114.6z" fill="#fafbfc"/><ellipse clip-rule="evenodd" cx="20.9" cy="292" fill="#676767" opacity=".2286" rx="2.2" ry="2.2"/><circle clip-rule="evenodd" cx="36.7" cy="292" fill="#676767" opacity=".2286" r="2.2"/><path clip-rule="evenodd" d="m26.3 289.8h4.5v4.5h-4.5z" fill="#676767" opacity=".2286"/><path clip-rule="evenodd" d="m9.8 284.7h114.6v.6h-114.6z" fill="#e6e6e5"/><path d="m86.8 49.2-.5-1.6h-2.5l-.5 1.6h-1.6l2.4-6.8h1.8l2.4 6.8zm-.9-2.9c-.5-1.5-.7-2.3-.8-2.5s-.1-.3-.1-.5c-.1.4-.4 1.4-.9 3z" fill="#f36b3a"/><path d="m93.9 44.5c0 .7-.2 1.3-.7 1.7s-1.1.6-2 .6h-.6v2.4h-1.4v-6.8h2.2c.8 0 1.5.2 1.9.5s.6.9.6 1.6zm-3.3 1.1h.5c.4 0 .8-.1 1-.3s.3-.4.3-.8c0-.3-.1-.6-.3-.8s-.5-.2-.9-.2h-.7v2.1z" fill="#f36b3a"/><path d="m95.2 49.2v-6.8h1.4v6.8z" fill="#f36b3a"/><path d="m101.9 47.6c0 .5-.2.9-.6 1.2s-.9.4-1.7.4c-.4 0-.7 0-1-.1s-.5-.1-.8-.2v-1.2c.3.1.6.2.9.3s.6.1.9.1c.5 0 .8-.1.8-.4 0-.1 0-.2-.1-.3s-.2-.1-.4-.2-.4-.2-.7-.3c-.4-.2-.7-.3-.9-.5-.2-.1-.3-.3-.4-.5s-.1-.4-.1-.7c0-.5.2-.8.5-1.1.4-.3.9-.4 1.5-.4s1.2.1 1.8.4l-.4 1c-.3-.1-.5-.2-.7-.3s-.5-.1-.7-.1c-.4 0-.6.1-.6.3 0 .1.1.2.2.3s.4.2.9.4c.4.2.7.3.9.5.2.1.3.3.4.5s.3.7.3.9z" fill="#f36b3a"/><g clip-rule="evenodd" transform="translate(0 74)"><path d="m9.8 71.1h120.6v32h-120.6z" fill="#231f20" opacity=".25"/><path d="m4 68.4h123.5v32h-123.5z" fill="#fafbfc"/><path d="m13.1 79.6h9c.6 0 1.1.5 1.1 1.1v6.6c0 .6-.5 1.1-1.1 1.1h-9c-.6 0-1.1-.5-1.1-1.1v-6.6c0-.6.5-1.1 1.1-1.1z" fill="#f36b3a"/></g><path d="m35.4 162.4-.6-2h-3.1l-.6 2h-1.9l3-8.5h2.2l3 8.5zm-1-3.6c-.6-1.8-.9-2.9-1-3.1s-.1-.4-.2-.6c-.1.5-.5 1.7-1.1 3.7z" fill="#f36c3d"/><path d="m44.3 156.5c0 .9-.3 1.6-.9 2.1s-1.4.7-2.4.7h-.8v3h-1.8v-8.5h2.7c1 0 1.8.2 2.4.7s.8 1.1.8 2zm-4 1.4h.6c.6 0 1-.1 1.2-.3.3-.2.4-.5.4-1 0-.4-.1-.7-.3-.9s-.6-.3-1.1-.3h-.8z" fill="#f36c3d"/><path d="m45.9 162.4v-8.5h1.8v8.5z" fill="#f36c3d"/><path d="m49.2 159.9v-1.5h3.1v1.5z" fill="#f36c3d"/><path d="m56.2 156.9c.8 0 1.5.2 2 .7s.7 1.1.7 1.9c0 .9-.3 1.7-.9 2.2s-1.4.8-2.5.8c-.9 0-1.7-.2-2.3-.5v-1.6c.3.2.7.3 1.1.4s.8.2 1.2.2c1.1 0 1.6-.4 1.6-1.3s-.6-1.3-1.7-1.3c-.2 0-.4 0-.7.1-.2 0-.4.1-.6.1l-.7-.4.3-4.3h4.6v1.5h-3l-.2 1.7h.2c.3-.1.6-.2.9-.2z" fill="#f36c3d"/><path d="m65.8 158.1c0 1.5-.2 2.6-.7 3.3s-1.2 1.1-2.2 1.1-1.7-.4-2.2-1.1-.7-1.8-.7-3.3.2-2.6.7-3.3 1.2-1.1 2.2-1.1 1.7.4 2.2 1.1.7 1.9.7 3.3zm-4.1 0c0 1 .1 1.8.3 2.2.2.5.5.7.9.7s.7-.2.9-.7.3-1.2.3-2.2-.1-1.8-.3-2.2c-.2-.5-.5-.7-.9-.7s-.7.2-.9.7c-.3.4-.3 1.2-.3 2.2z" fill="#f36c3d"/><path d="m72.6 158.1c0 1.5-.2 2.6-.7 3.3s-1.2 1.1-2.2 1.1-1.7-.4-2.2-1.1-.7-1.8-.7-3.3.2-2.6.7-3.3 1.2-1.1 2.2-1.1 1.7.4 2.2 1.1c.5.8.7 1.9.7 3.3zm-4.2 0c0 1 .1 1.8.3 2.2.2.5.5.7.9.7s.7-.2.9-.7.3-1.2.3-2.2-.1-1.8-.3-2.2c-.2-.5-.5-.7-.9-.7s-.7.2-.9.7c-.2.4-.3 1.2-.3 2.2z" fill="#f36c3d"/><path d="m79.4 158.1c0 1.5-.2 2.6-.7 3.3s-1.2 1.1-2.2 1.1-1.7-.4-2.2-1.1-.7-1.8-.7-3.3.2-2.6.7-3.3 1.2-1.1 2.2-1.1 1.7.4 2.2 1.1.7 1.9.7 3.3zm-4.2 0c0 1 .1 1.8.3 2.2.2.5.5.7.9.7s.7-.2.9-.7.3-1.2.3-2.2-.1-1.8-.3-2.2c-.2-.5-.5-.7-.9-.7s-.7.2-.9.7c-.2.4-.3 1.2-.3 2.2z" fill="#f36c3d"/><path clip-rule="evenodd" d="m85.4 157h10v7.1h-10z" fill="#f36c3d"/><path d="m94 158.8h-1.3v-3c0-1.3-1-2.3-2.3-2.3s-2.3 1-2.3 2.3v3h-1.3v-3c0-2 1.6-3.6 3.6-3.6s3.6 1.6 3.6 3.6z" fill="#f36c3d"/><path d="m133.7 191.3c-8.6 0-16.8-3.4-22.2-10-.5-.5-.4-1.4.2-1.8.5-.5 1.4-.4 1.8.2 7.9 9.4 22 11.7 34.3 5.7.6-.3 1.4-.1 1.7.6.3.6.1 1.4-.6 1.7-4.9 2.4-10.1 3.6-15.2 3.6z" fill="#f36c3d"/><path d="m150 192.4 5.6-10.6-12 .4z" fill="#f36c3d"/><path d="m150.2 103.9c0-.6.1-1 .1-1.6 0-.3-.2-.7-1.2-.7v-.6c1 0 1.2-.3 1.2-.7 0-.5-.1-1-.1-1.6 0-.9.5-1.2 1.6-1.2h.6v.5h-.4c-.8 0-1 .2-1 .7v1.5c0 .6-.2.9-.8 1 .6.1.8.4.8 1v1.5c0 .5.2.7 1 .7h.4v.6h-.6c-1.1.1-1.6-.2-1.6-1.1z" fill="#343434"/><path d="m159.5 109.4v-1.1h1.2v1.1l-.3 2h-.6zm2.2 0v-1.1h1.2v1.1l-.3 2h-.6z" fill="#9a1d55"/><path d="m164.3 112.1c0-1.4 1-2.3 2.2-2.3 1.1 0 2.2.8 2.2 2.3 0 1.4-1 2.3-2.2 2.3s-2.2-.8-2.2-2.3zm3.3 0c0-.9-.4-1.4-1.1-1.4s-1.1.6-1.1 1.4c0 .9.4 1.4 1.1 1.4.6.1 1.1-.5 1.1-1.4z" fill="#9a1d55"/><path d="m169.8 110h.8l.1.5c.4-.3.9-.6 1.4-.6 1.1 0 1.8.9 1.8 2.2 0 1.5-.9 2.3-1.9 2.3-.4 0-.8-.2-1.2-.5v.8 1.4h-1zm3 2.1c0-.9-.3-1.4-1-1.4-.3 0-.7.2-1 .5v1.9c.3.3.7.4.9.4.7.1 1.1-.4 1.1-1.4z" fill="#9a1d55"/><path d="m174.9 112.1c0-1.4 1.1-2.3 2.2-2.3 1.3 0 2 .9 2 2v.5h-3.4v-.7h2.8l-.2.2c0-.8-.4-1.3-1.1-1.3s-1.3.5-1.3 1.5.6 1.5 1.5 1.5c.5 0 .8-.1 1.2-.4l.3.6c-.5.3-1.1.5-1.7.5-1.3.2-2.3-.6-2.3-2.1z" fill="#9a1d55"/><path d="m180.3 110h.8l.1.6c.4-.4.9-.8 1.6-.8 1 0 1.4.6 1.4 1.7v2.7h-1v-2.5c0-.7-.2-1-.8-1-.4 0-.7.2-1.1.6v2.9h-1z" fill="#9a1d55"/><path d="m185.5 113.1c0-1 .8-1.4 3-1.6 0-.5-.3-.8-1-.8-.5 0-1 .2-1.4.5l-.4-.7c.5-.3 1.2-.6 2-.6 1.2 0 1.9.7 1.9 1.9v2.5h-.8l-.1-.5c-.5.3-1 .6-1.6.6-1 0-1.6-.5-1.6-1.3zm2.9 0v-.9c-1.5.1-2 .4-2 .9 0 .4.3.5.8.5.4 0 .8-.2 1.2-.5z" fill="#9a1d55"/><path d="m190.8 110h.8l.1.5c.4-.3.9-.6 1.4-.6 1.1 0 1.8.9 1.8 2.2 0 1.5-.9 2.3-1.9 2.3-.4 0-.8-.2-1.2-.5v.8 1.4h-1zm3 2.1c0-.9-.3-1.4-1-1.4-.3 0-.7.2-1 .5v1.9c.3.3.7.4.9.4.7.1 1.1-.4 1.1-1.4z" fill="#9a1d55"/><path d="m197.9 110.8h-1.9v-.8h2.9v4.3h-1zm-.2-2.3c0-.4.3-.7.7-.7s.7.3.7.7-.3.7-.7.7-.7-.3-.7-.7z" fill="#9a1d55"/><path d="m201.6 109.4v-1.1h1.2v1.1l-.3 2h-.6zm2.1 0v-1.1h1.2v1.1l-.3 2h-.6z" fill="#9a1d55"/><path d="m207.6 110.5c0-.5.4-.9.9-.9s.9.4.9.9-.4.9-.9.9-.9-.4-.9-.9zm0 3c0-.5.4-.9.9-.9s.9.4.9.9-.4.9-.9.9-.9-.4-.9-.9z" fill="#343434"/><path d="m217.3 109.4v-1.1h1.2v1.1l-.3 2h-.6zm2.2 0v-1.1h1.2v1.1l-.3 2h-.6z" fill="#3d55a3"/><path d="m222.1 113.6.5-.6c.4.3.9.6 1.5.6.7 0 1.2-.3 1.2-.8 0-.6-.5-.9-1.8-.9v-.9c1.2 0 1.7-.4 1.7-.9s-.4-.7-1-.7c-.5 0-.9.2-1.3.5l-.5-.6c.5-.4 1.1-.7 1.8-.7 1.1 0 2 .5 2 1.5 0 .6-.4 1-1.1 1.3.7.2 1.3.6 1.3 1.4 0 1-1 1.6-2.1 1.6s-1.8-.4-2.2-.8z" fill="#3d55a3"/><path d="m228.6 113.5c0-.5.4-.9.9-.9s.9.4.9.9-.4.9-.9.9-.9-.4-.9-.9z" fill="#3d55a3"/><path d="m232.7 111.5c0-1.9.8-2.9 2.1-2.9s2.1 1 2.1 2.9-.8 2.9-2.1 2.9-2.1-1-2.1-2.9zm3.2 0c0-1.5-.5-2.1-1.2-2.1s-1.2.6-1.2 2.1.5 2.1 1.2 2.1 1.2-.6 1.2-2.1zm-1.7-.1c0-.4.3-.6.6-.6s.6.2.6.6-.3.6-.6.6c-.4.1-.6-.2-.6-.6z" fill="#3d55a3"/><path d="m239.2 113.5c0-.5.4-.9.9-.9s.9.4.9.9-.4.9-.9.9c-.6 0-.9-.4-.9-.9z" fill="#3d55a3"/><path d="m243.2 111.5c0-1.9.8-2.9 2.1-2.9s2.1 1 2.1 2.9-.8 2.9-2.1 2.9-2.1-1-2.1-2.9zm3.2 0c0-1.5-.5-2.1-1.2-2.1s-1.2.6-1.2 2.1.5 2.1 1.2 2.1 1.2-.6 1.2-2.1zm-1.7-.1c0-.4.3-.6.6-.6s.6.2.6.6-.3.6-.6.6c-.3.1-.6-.2-.6-.6z" fill="#3d55a3"/><path d="m248.9 109.4v-1.1h1.2v1.1l-.3 2h-.6zm2.1 0v-1.1h1.2v1.1l-.3 2h-.6z" fill="#3d55a3"/><path d="m254.8 115.6c.8-.3 1.1-.8 1.1-1.4l-.1-.9.5.8c-.2.1-.3.2-.5.2-.4 0-.8-.3-.8-.8s.4-.8.8-.8c.6 0 .9.5.9 1.3 0 1.1-.6 1.8-1.7 2.2z" fill="#343434"/><path d="m159.5 119.9v-1.1h1.2v1.1l-.3 2h-.6zm2.2 0v-1.1h1.2v1.1l-.3 2h-.6z" fill="#9a1d55"/><path d="m166.4 121.3h-1.9v-.8h2.9v4.3h-1zm-.3-2.3c0-.4.3-.7.7-.7s.7.3.7.7-.3.7-.7.7-.7-.3-.7-.7z" fill="#9a1d55"/><path d="m169.8 120.5h.8l.1.6c.4-.4.9-.8 1.6-.8 1 0 1.4.6 1.4 1.7v2.7h-1v-2.5c0-.7-.2-1-.8-1-.4 0-.7.2-1.1.6v2.9h-1z" fill="#9a1d55"/><path d="m175.1 120.5h1.2 2.6v.8h-3.8zm1.2-.2c0-1 .6-1.8 1.8-1.8.5 0 .9.1 1.3.2l-.2.7c-.3-.1-.6-.2-.9-.2-.7 0-.9.3-.9.9v4.6h-1v-4.4z" fill="#9a1d55"/><path d="m180.1 122.7c0-1.4 1-2.3 2.2-2.3 1.1 0 2.2.8 2.2 2.3 0 1.4-1 2.3-2.2 2.3-1.2-.1-2.2-.9-2.2-2.3zm3.2 0c0-.9-.4-1.4-1.1-1.4s-1.1.6-1.1 1.4c0 .9.4 1.4 1.1 1.4s1.1-.6 1.1-1.4z" fill="#9a1d55"/><path d="m185.8 119.9v-1.1h1.2v1.1l-.3 2h-.6zm2.2 0v-1.1h1.2v1.1l-.3 2h-.6z" fill="#9a1d55"/><path d="m191.9 121c0-.5.4-.9.9-.9s.9.4.9.9-.4.9-.9.9c-.6 0-.9-.4-.9-.9zm0 3c0-.5.4-.9.9-.9s.9.4.9.9-.4.9-.9.9c-.6 0-.9-.4-.9-.9z" fill="#343434"/><path d="m202.7 124.9c0-.6.1-1 .1-1.6 0-.3-.2-.7-1.2-.7v-.6c1 0 1.2-.3 1.2-.7 0-.5-.1-1-.1-1.6 0-.9.5-1.2 1.6-1.2h.6v.5h-.4c-.8 0-1 .2-1 .7v1.5c0 .6-.2.9-.8 1 .6.1.8.4.8 1v1.5c0 .5.2.7 1 .7h.4v.5h-.6c-1 .2-1.6 0-1.6-1z" fill="#343434"/><path d="m170 130.4v-1.1h1.2v1.1l-.3 2h-.6zm2.2 0v-1.1h1.2v1.1l-.3 2h-.6z" fill="#9a1d55"/><path d="m174.7 131h1l.8 2.2c.2.4.3.9.4 1.3.1-.4.3-.9.4-1.3l.8-2.2h1l-1.7 4.3h-1.2z" fill="#9a1d55"/><path d="m180.1 133.2c0-1.4 1.1-2.3 2.2-2.3 1.3 0 2 .9 2 2v.5h-3.4v-.7h2.8l-.2.2c0-.8-.4-1.3-1.1-1.3s-1.3.5-1.3 1.5.6 1.5 1.5 1.5c.5 0 .8-.1 1.2-.4l.3.6c-.5.3-1.1.5-1.7.5-1.2.1-2.3-.7-2.3-2.1z" fill="#9a1d55"/><path d="m186 131h.8l.1 1c.4-.7 1.1-1.1 1.8-1.1.3 0 .6.1.8.2l-.2.9c-.3-.1-.5-.1-.8-.1-.6 0-1.2.3-1.6 1.1v2.4h-1v-4.4z" fill="#9a1d55"/><path d="m190.6 134.8.4-.6c.5.3 1.1.5 1.8.5.6 0 .9-.2.9-.5s-.2-.4-1.2-.6c-1.1-.2-1.7-.6-1.7-1.3s.7-1.3 1.9-1.3c.7 0 1.4.3 1.8.6l-.5.6c-.4-.3-.9-.4-1.4-.4-.6 0-.8.2-.8.5s.3.4 1.1.6c1.4.3 1.7.7 1.7 1.4s-.7 1.3-2 1.3c-.7-.2-1.4-.5-2-.8z" fill="#9a1d55"/><path d="m197.9 131.8h-1.9v-.8h2.9v4.3h-1zm-.2-2.3c0-.4.3-.7.7-.7s.7.3.7.7-.3.7-.7.7-.7-.2-.7-.7z" fill="#9a1d55"/><path d="m201.1 133.2c0-1.4 1-2.3 2.2-2.3 1.1 0 2.2.8 2.2 2.3 0 1.4-1 2.3-2.2 2.3-1.2-.1-2.2-.9-2.2-2.3zm3.3 0c0-.9-.4-1.4-1.1-1.4s-1.1.6-1.1 1.4c0 .9.4 1.4 1.1 1.4s1.1-.6 1.1-1.4z" fill="#9a1d55"/><path d="m206.6 131h.8l.1.6c.4-.4.9-.8 1.6-.8 1 0 1.4.6 1.4 1.7v2.7h-1v-2.5c0-.7-.2-1-.8-1-.4 0-.7.2-1.1.6v2.9h-1z" fill="#9a1d55"/><path d="m212.1 130.4v-1.1h1.2v1.1l-.3 2h-.6zm2.1 0v-1.1h1.2v1.1l-.3 2h-.6z" fill="#9a1d55"/><path d="m218.1 131.5c0-.5.4-.9.9-.9s.9.4.9.9-.4.9-.9.9-.9-.3-.9-.9zm0 3c0-.5.4-.9.9-.9s.9.4.9.9-.4.9-.9.9-.9-.4-.9-.9z" fill="#343434"/><path d="m227.8 130.4v-1.1h1.2v1.1l-.3 2h-.6zm2.2 0v-1.1h1.2v1.1l-.3 2h-.6z" fill="#3d55a3"/><path d="m232.9 134.5h1.6v-3.6h-1.2v-.6c.7-.1 1.1-.2 1.5-.5h.7v4.7h1.4v.8h-3.9v-.8z" fill="#3d55a3"/><path d="m239.2 134.5c0-.5.4-.9.9-.9s.9.4.9.9-.4.9-.9.9c-.6 0-.9-.4-.9-.9z" fill="#3d55a3"/><path d="m243.2 132.5c0-1.9.8-2.9 2.1-2.9s2.1 1 2.1 2.9-.8 2.9-2.1 2.9-2.1-1-2.1-2.9zm3.2 0c0-1.5-.5-2.1-1.2-2.1s-1.2.6-1.2 2.1.5 2.1 1.2 2.1 1.2-.6 1.2-2.1zm-1.7 0c0-.4.3-.6.6-.6s.6.2.6.6-.3.6-.6.6-.6-.2-.6-.6z" fill="#3d55a3"/><path d="m249.7 134.5c0-.5.4-.9.9-.9s.9.4.9.9-.4.9-.9.9c-.6 0-.9-.4-.9-.9z" fill="#3d55a3"/><path d="m253.7 132.5c0-1.9.8-2.9 2.1-2.9s2.1 1 2.1 2.9-.8 2.9-2.1 2.9-2.1-1-2.1-2.9zm3.3 0c0-1.5-.5-2.1-1.2-2.1s-1.2.6-1.2 2.1.5 2.1 1.2 2.1 1.2-.6 1.2-2.1zm-1.8 0c0-.4.3-.6.6-.6s.6.2.6.6-.3.6-.6.6-.6-.2-.6-.6z" fill="#3d55a3"/><path d="m259.4 130.4v-1.1h1.2v1.1l-.3 2h-.6zm2.1 0v-1.1h1.2v1.1l-.3 2h-.6z" fill="#3d55a3"/><path d="m265.3 136.6c.8-.3 1.1-.8 1.1-1.4l-.1-.9.5.8c-.2.1-.3.2-.5.2-.4 0-.8-.3-.8-.8s.4-.8.8-.8c.6 0 .9.5.9 1.3 0 1.1-.6 1.8-1.7 2.2z" fill="#343434"/><path d="m170 140.9v-1.1h1.2v1.1l-.3 2h-.6zm2.2 0v-1.1h1.2v1.1l-.3 2h-.6z" fill="#9a1d55"/><path d="m176 144.1v-1.8h-1.2v-.8h1.2l.1-1.3h.8v1.3h2v.8h-2v1.8c0 .7.3 1 1 1 .4 0 .7-.1.9-.2l.2.7c-.4.1-.8.2-1.4.2-1.2.1-1.6-.6-1.6-1.7z" fill="#9a1d55"/><path d="m182.2 142.3h-1.9v-.8h2.9v4.3h-1zm-.3-2.2c0-.4.3-.7.7-.7s.7.3.7.7-.3.7-.7.7-.7-.3-.7-.7z" fill="#9a1d55"/><path d="m186.5 144.1v-1.8h-1.2v-.8h1.2l.1-1.3h.8v1.3h2v.8h-2v1.8c0 .7.3 1 1 1 .4 0 .7-.1.9-.2l.2.7c-.4.1-.8.2-1.4.2-1.1.1-1.6-.6-1.6-1.7z" fill="#9a1d55"/><path d="m192.1 144.3v-3.8h-1.4v-.8h2.4v4.7c0 .6.3.8.8.8.2 0 .5-.1.7-.2l.2.7c-.4.2-.7.2-1.2.2-1 0-1.5-.6-1.5-1.6z" fill="#9a1d55"/><path d="m195.9 143.7c0-1.4 1.1-2.3 2.2-2.3 1.3 0 2 .9 2 2v.5h-3.4v-.7h2.8l-.2.2c0-.8-.4-1.3-1.1-1.3s-1.3.5-1.3 1.5.6 1.5 1.5 1.5c.5 0 .8-.1 1.2-.4l.3.6c-.5.3-1.1.5-1.7.5-1.3.1-2.3-.7-2.3-2.1z" fill="#9a1d55"/><path d="m201.6 140.9v-1.1h1.2v1.1l-.3 2h-.6zm2.1 0v-1.1h1.2v1.1l-.3 2h-.6z" fill="#9a1d55"/><path d="m207.6 142.1c0-.5.4-.9.9-.9s.9.4.9.9-.4.9-.9.9c-.5-.1-.9-.4-.9-.9zm0 2.9c0-.5.4-.9.9-.9s.9.4.9.9-.4.9-.9.9-.9-.3-.9-.9z" fill="#343434"/><path d="m217.3 140.9v-1.1h1.2v1.1l-.3 2h-.6zm2.2 0v-1.1h1.2v1.1l-.3 2h-.6z" fill="#3d55a3"/><path d="m222.4 145h1.4v-4h-1.4v-.9h3.8v.9h-1.4v4h1.4v.9h-3.8z" fill="#3d55a3"/><path d="m227.6 141.5h.8l.1.6c.4-.4.9-.8 1.6-.8 1 0 1.4.6 1.4 1.7v2.7h-1v-2.5c0-.7-.2-1-.8-1-.4 0-.7.2-1.1.6v2.9h-1z" fill="#3d55a3"/><path d="m232.5 141.5h1l.8 2.2c.2.4.3.9.4 1.3.1-.4.3-.9.4-1.3l.8-2.2h1l-1.7 4.3h-1.2z" fill="#3d55a3"/><path d="m237.9 143.7c0-1.4 1.1-2.3 2.2-2.3 1.3 0 2 .9 2 2v.5h-3.4v-.7h2.8l-.2.2c0-.8-.4-1.3-1.1-1.3s-1.3.5-1.3 1.5.6 1.5 1.5 1.5c.5 0 .8-.1 1.2-.4l.3.6c-.5.3-1.1.5-1.7.5-1.2.1-2.3-.7-2.3-2.1z" fill="#3d55a3"/><path d="m243.4 141.5h.8l.1.6c.4-.4.9-.8 1.6-.8 1 0 1.4.6 1.4 1.7v2.7h-1v-2.5c0-.7-.2-1-.8-1-.4 0-.7.2-1.1.6v2.9h-1z" fill="#3d55a3"/><path d="m249.6 144.1v-1.8h-1.2v-.8h1.2l.1-1.3h.8v1.3h2v.8h-2v1.8c0 .7.3 1 1 1 .4 0 .7-.1.9-.2l.2.7c-.4.1-.8.2-1.4.2-1.2.1-1.6-.6-1.6-1.7z" fill="#3d55a3"/><path d="m253.6 143.7c0-1.4 1-2.3 2.2-2.3 1.1 0 2.2.8 2.2 2.3 0 1.4-1 2.3-2.2 2.3-1.1-.1-2.2-.9-2.2-2.3zm3.3 0c0-.9-.4-1.4-1.1-1.4s-1.1.6-1.1 1.4c0 .9.4 1.4 1.1 1.4s1.1-.6 1.1-1.4z" fill="#3d55a3"/><path d="m259.6 141.5h.8l.1 1c.4-.7 1.1-1.1 1.8-1.1.3 0 .6.1.8.2l-.2.9c-.3-.1-.5-.1-.8-.1-.6 0-1.2.3-1.6 1.1v2.4h-1v-4.4z" fill="#3d55a3"/><path d="m264.3 147.5.2-.8c.1 0 .2.1.4.1.5 0 .9-.3 1-.7l.1-.3-1.9-4.2h1l.9 2.1c.2.4.3.8.5 1.3.1-.4.3-.9.4-1.3l.8-2.1h1l-1.8 4.5c-.4 1-.9 1.6-1.9 1.6-.4-.1-.6-.1-.7-.2z" fill="#3d55a3"/><path d="m276.2 140.1h1.2l1.9 5.7h-1.1l-.9-3c-.2-.6-.4-1.3-.5-1.9-.2.6-.3 1.3-.5 1.9l-.9 3h-1zm-.7 3.4h2.7v.8h-2.7z" fill="#3d55a3"/><path d="m280.2 140.1h1.9c1.3 0 2.2.4 2.2 1.8 0 1.3-.9 1.9-2.2 1.9h-.9v2.1h-1zm1.8 2.8c.9 0 1.3-.3 1.3-1s-.4-1-1.3-1h-.8v2z" fill="#3d55a3"/><path d="m285.4 145h1.4v-4h-1.4v-.9h3.8v.9h-1.4v4h1.4v.9h-3.8z" fill="#3d55a3"/><path d="m290.9 140.9v-1.1h1.2v1.1l-.3 2h-.6zm2.2 0v-1.1h1.2v1.1l-.3 2h-.6z" fill="#3d55a3"/><path d="m296.9 147.1c.8-.3 1.1-.8 1.1-1.4l-.1-.9.5.8c-.2.1-.3.2-.5.2-.4 0-.8-.3-.8-.8s.4-.8.8-.8c.6 0 .9.5.9 1.3 0 1.1-.6 1.8-1.7 2.2z" fill="#343434"/><path d="m170 151.4v-1.1h1.2v1.1l-.3 2h-.6zm2.2 0v-1.1h1.2v1.1l-.3 2h-.6z" fill="#9a1d55"/><path d="m176.3 154.8v-3.8h-1.4v-.8h2.4v4.7c0 .6.3.8.8.8.2 0 .5-.1.7-.2l.2.7c-.4.2-.7.2-1.2.2-1 0-1.5-.6-1.5-1.6z" fill="#9a1d55"/><path d="m182.2 152.8h-1.9v-.8h2.9v4.3h-1zm-.3-2.2c0-.4.3-.7.7-.7s.7.3.7.7-.3.7-.7.7-.7-.3-.7-.7z" fill="#9a1d55"/><path d="m185.5 154.2c0-1.4 1.1-2.3 2.4-2.3.7 0 1.2.3 1.6.6l-.5.6c-.3-.3-.7-.4-1.1-.4-.9 0-1.5.6-1.5 1.4 0 .9.6 1.4 1.4 1.4.5 0 .9-.2 1.2-.5l.4.6c-.5.4-1.1.7-1.7.7-1.2.1-2.2-.7-2.2-2.1z" fill="#9a1d55"/><path d="m190.6 154.2c0-1.4 1.1-2.3 2.2-2.3 1.3 0 2 .9 2 2v.5h-3.4v-.7h2.8l-.2.3c0-.8-.4-1.3-1.1-1.3s-1.3.5-1.3 1.5.6 1.5 1.5 1.5c.5 0 .8-.1 1.2-.4l.3.6c-.5.3-1.1.5-1.7.5-1.2 0-2.3-.8-2.3-2.2z" fill="#9a1d55"/><path d="m196.1 152h.8l.1.6c.4-.4.9-.8 1.6-.8 1 0 1.4.6 1.4 1.7v2.7h-1v-2.5c0-.7-.2-1-.8-1-.4 0-.7.2-1.1.6v2.9h-1z" fill="#9a1d55"/><path d="m201.2 155.8.4-.6c.5.3 1.1.5 1.8.5.6 0 .9-.2.9-.5s-.2-.4-1.2-.6c-1.1-.2-1.7-.6-1.7-1.3s.7-1.3 1.9-1.3c.7 0 1.4.3 1.8.6l-.5.6c-.4-.3-.9-.4-1.4-.4-.6 0-.8.2-.8.5s.3.4 1.1.6c1.4.3 1.7.7 1.7 1.4s-.7 1.3-2 1.3c-.7-.2-1.5-.5-2-.8z" fill="#9a1d55"/><path d="m206.4 154.2c0-1.4 1.1-2.3 2.2-2.3 1.3 0 2 .9 2 2v.5h-3.4v-.7h2.8l-.2.2c0-.8-.4-1.3-1.1-1.3s-1.3.5-1.3 1.5.6 1.5 1.5 1.5c.5 0 .8-.1 1.2-.4l.3.6c-.5.3-1.1.5-1.7.5-1.3.1-2.3-.7-2.3-2.1z" fill="#9a1d55"/><path d="m212.1 151.4v-1.1h1.2v1.1l-.3 2h-.6zm2.1 0v-1.1h1.2v1.1l-.3 2h-.6z" fill="#9a1d55"/><path d="m218.1 152.6c0-.5.4-.9.9-.9s.9.4.9.9-.4.9-.9.9-.9-.4-.9-.9zm0 3c0-.5.4-.9.9-.9s.9.4.9.9-.4.9-.9.9c-.5-.1-.9-.4-.9-.9z" fill="#343434"/><path d="m229 156.5c0-.6.1-1 .1-1.6 0-.3-.2-.7-1.2-.7v-.6c1 0 1.2-.3 1.2-.7 0-.5-.1-1-.1-1.6 0-.9.5-1.2 1.6-1.2h.6v.5h-.4c-.8 0-1 .2-1 .7v1.5c0 .6-.2.9-.8 1 .6.1.8.4.8 1v1.5c0 .5.2.7 1 .7h.4v.5h-.6c-1.1.2-1.6-.1-1.6-1z" fill="#343434"/><path d="m180.5 162v-1.1h1.2v1.1l-.3 2h-.6zm2.2 0v-1.1h1.2v1.1l-.3 2h-.6z" fill="#9a1d55"/><path d="m185.6 162.5h.8l.1.6c.4-.4.9-.8 1.6-.8 1 0 1.4.6 1.4 1.7v2.7h-1v-2.5c0-.7-.2-1-.8-1-.4 0-.7.2-1.1.6v2.9h-1z" fill="#9a1d55"/><path d="m190.7 165.7c0-1 .8-1.4 3-1.6 0-.5-.3-.8-1-.8-.5 0-1 .2-1.4.5l-.4-.7c.5-.3 1.2-.6 2-.6 1.2 0 1.9.7 1.9 1.9v2.5h-.8l-.1-.5c-.5.3-1 .6-1.6.6-1 0-1.6-.6-1.6-1.3zm3-.1v-.9c-1.5.1-2 .4-2 .9 0 .4.3.5.8.5.4.1.8-.1 1.2-.5z" fill="#9a1d55"/><path d="m195.8 162.5h.8l.1.5c.2-.4.5-.7 1-.7.4 0 .7.2.8.7.2-.4.5-.7 1-.7.6 0 1 .5 1 1.4v3h-1v-3c0-.4-.1-.6-.3-.6s-.4.2-.5.5v3h-.8v-3c0-.4-.1-.6-.3-.6s-.4.2-.5.5v3h-1v-4z" fill="#9a1d55"/><path d="m201.1 164.7c0-1.4 1.1-2.3 2.2-2.3 1.3 0 2 .9 2 2v.5h-3.4v-.7h2.8l-.2.2c0-.9-.4-1.3-1.1-1.3s-1.3.5-1.3 1.5.6 1.5 1.5 1.5c.5 0 .8-.1 1.2-.4l.3.6c-.5.3-1.1.5-1.7.5-1.2.2-2.3-.7-2.3-2.1z" fill="#9a1d55"/><path d="m206.8 162v-1.1h1.2v1.1l-.3 2h-.6zm2.2 0v-1.1h1.2v1.1l-.3 2h-.6z" fill="#9a1d55"/><path d="m212.9 163.1c0-.5.4-.9.9-.9s.9.4.9.9-.4.9-.9.9c-.6 0-.9-.4-.9-.9zm0 3c0-.5.4-.9.9-.9s.9.4.9.9-.4.9-.9.9c-.6 0-.9-.4-.9-.9z" fill="#343434"/><path d="m222.6 162v-1.1h1.2v1.1l-.3 2h-.6zm2.2 0v-1.1h1.2v1.1l-.3 2h-.7z" fill="#3d55a3"/><path d="m227.5 161.1h1.1l.7 2.2.2.9.2-.9.7-2.2h1.1v5.7h-.9v-2.3c0-.6.1-1.8.1-2.3l-.4 1.3-.6 1.8h-.6l-.6-1.8-.4-1.3c.1.6.1 1.7.1 2.3v2.3h-.9v-5.7z" fill="#3d55a3"/><path d="m232.9 166h1.4v-4h-1.4v-.9h3.8v.9h-1.4v4h1.4v.9h-3.8z" fill="#3d55a3"/><path d="m239.5 162h-1.8v-.9h4.6v.9h-1.8v4.9h-1z" fill="#3d55a3"/><path d="m243.6 162v-1.1h1.2v1.1l-.3 2h-.6zm2.2 0v-1.1h1.2v1.1l-.3 2h-.7z" fill="#3d55a3"/><path d="m170 178.1h.4c.8 0 1-.2 1-.7s0-.9 0-1.5.2-.9.8-1c-.6-.1-.8-.4-.8-1 0-.5 0-1 0-1.5s-.2-.7-1-.7h-.4v-.5h.6c1.1 0 1.6.3 1.6 1.2 0 .6-.1 1-.1 1.6 0 .3.2.7 1.2.7v.6c-1 0-1.2.3-1.2.7 0 .6.1 1 .1 1.6 0 .9-.5 1.2-1.6 1.2h-.6z" fill="#343434"/><path d="m159.5 188.7h.4c.8 0 1-.2 1-.7s0-.9 0-1.5.2-.9.8-1c-.6-.1-.8-.4-.8-1 0-.5 0-1 0-1.5s-.2-.7-1-.7h-.4v-.5h.6c1.1 0 1.6.3 1.6 1.2 0 .6-.1 1-.1 1.6 0 .3.2.7 1.2.7v.6c-1 0-1.2.3-1.2.7 0 .6.1 1 .1 1.6 0 .9-.5 1.2-1.6 1.2h-.6z" fill="#343434"/><path d="m165.5 189.1c.8-.3 1.1-.8 1.1-1.4l-.1-.9.5.8c-.2.1-.3.2-.5.2-.4 0-.8-.3-.8-.8s.4-.8.8-.8c.6 0 .9.5.9 1.3 0 1.1-.6 1.8-1.7 2.2z" fill="#343434"/><path d="m159.5 193.5v-1.1h1.2v1.1l-.3 2h-.6zm2.2 0v-1.1h1.2v1.1l-.3 2h-.6z" fill="#9a1d55"/><path d="m164.4 197.8.4-.6c.5.3 1.1.5 1.8.5.6 0 .9-.2.9-.5s-.2-.4-1.2-.6c-1.1-.2-1.7-.6-1.7-1.3s.7-1.3 1.9-1.3c.7 0 1.4.3 1.8.6l-.5.6c-.4-.3-.9-.4-1.4-.4-.6 0-.8.2-.8.5s.3.4 1.1.6c1.4.3 1.7.7 1.7 1.4s-.7 1.3-2 1.3c-.7-.1-1.5-.4-2-.8z" fill="#9a1d55"/><path d="m169.6 196.2c0-1.4 1.1-2.3 2.2-2.3 1.3 0 2 .9 2 2v.5h-3.4v-.7h2.8l-.2.2c0-.8-.4-1.3-1.1-1.3s-1.3.5-1.3 1.5.6 1.5 1.5 1.5c.5 0 .8-.1 1.2-.4l.3.6c-.5.3-1.1.5-1.7.5-1.3.2-2.3-.6-2.3-2.1z" fill="#9a1d55"/><path d="m175.5 194.1h.8l.1 1c.4-.7 1.1-1.1 1.8-1.1.3 0 .6.1.8.2l-.2.9c-.3-.1-.5-.1-.8-.1-.6 0-1.2.3-1.6 1.1v2.4h-1v-4.4z" fill="#9a1d55"/><path d="m179.9 194.1h1l.8 2.2c.2.4.3.9.4 1.3.1-.4.3-.9.4-1.3l.8-2.2h1l-1.7 4.3h-1.2z" fill="#9a1d55"/><path d="m185.4 196.2c0-1.4 1.1-2.3 2.2-2.3 1.3 0 2 .9 2 2v.5h-3.4v-.7h2.8l-.2.2c0-.8-.4-1.3-1.1-1.3s-1.3.5-1.3 1.5.6 1.5 1.5 1.5c.5 0 .8-.1 1.2-.4l.3.6c-.5.3-1.1.5-1.7.5-1.3.2-2.3-.6-2.3-2.1z" fill="#9a1d55"/><path d="m191.2 194.1h.8l.1 1c.4-.7 1.1-1.1 1.8-1.1.3 0 .6.1.8.2l-.2.9c-.3-.1-.5-.1-.8-.1-.6 0-1.2.3-1.6 1.1v2.4h-1v-4.4z" fill="#9a1d55"/><path d="m195.9 197.8.4-.6c.5.3 1.1.5 1.8.5.6 0 .9-.2.9-.5s-.2-.4-1.2-.6c-1.1-.2-1.7-.6-1.7-1.3s.7-1.3 1.9-1.3c.7 0 1.4.3 1.8.6l-.5.6c-.4-.3-.9-.4-1.4-.4-.6 0-.8.2-.8.5s.3.4 1.1.6c1.4.3 1.7.7 1.7 1.4s-.7 1.3-2 1.3c-.7-.1-1.5-.4-2-.8z" fill="#9a1d55"/><path d="m201.6 193.5v-1.1h1.2v1.1l-.3 2h-.6zm2.1 0v-1.1h1.2v1.1l-.3 2h-.6z" fill="#9a1d55"/><path d="m207.6 194.6c0-.5.4-.9.9-.9s.9.4.9.9-.4.9-.9.9-.9-.4-.9-.9zm0 3c0-.5.4-.9.9-.9s.9.4.9.9-.4.9-.9.9-.9-.4-.9-.9z" fill="#343434"/><path d="m218.2 192.2h2.5v.5h-1.7v6.4h1.7v.5h-2.5z" fill="#343434"/><path d="m171.2 209c0-.6.1-1 .1-1.6 0-.3-.2-.7-1.2-.7v-.6c1 0 1.2-.3 1.2-.7 0-.5-.1-1-.1-1.6 0-.9.5-1.2 1.6-1.2h.6v.5h-.4c-.8 0-1 .2-1 .7v1.5c0 .6-.2.9-.8 1 .6.1.8.4.8 1v1.5c0 .5.2.7 1 .7h.4v.5h-.6c-1.1.2-1.6-.1-1.6-1z" fill="#343434"/><path d="m180.5 214.5v-1.1h1.2v1.1l-.3 2h-.6zm2.2 0v-1.1h1.2v1.1l-.3 2h-.6z" fill="#9a1d55"/><path d="m185.4 217.8v-2.7h1v2.5c0 .7.2 1 .8 1 .4 0 .7-.2 1.1-.6v-2.9h1v4.3h-.8l-.1-.7c-.4.5-.9.8-1.5.8-1 0-1.5-.6-1.5-1.7z" fill="#9a1d55"/><path d="m191.2 215.1h.8l.1 1c.4-.7 1.1-1.1 1.8-1.1.3 0 .6.1.8.2l-.2.9c-.3-.1-.5-.1-.8-.1-.6 0-1.2.3-1.6 1.1v2.4h-1v-4.4z" fill="#9a1d55"/><path d="m197.3 217.8v-3.8h-1.4v-.8h2.4v4.7c0 .6.3.8.8.8.2 0 .5-.1.7-.2l.2.7c-.4.2-.7.2-1.2.2-.9.1-1.5-.5-1.5-1.6z" fill="#9a1d55"/><path d="m201.6 214.5v-1.1h1.2v1.1l-.3 2h-.6zm2.1 0v-1.1h1.2v1.1l-.3 2h-.6z" fill="#9a1d55"/><path d="m207.6 215.6c0-.5.4-.9.9-.9s.9.4.9.9-.4.9-.9.9-.9-.3-.9-.9zm0 3c0-.5.4-.9.9-.9s.9.4.9.9-.4.9-.9.9-.9-.4-.9-.9z" fill="#343434"/><g fill="#3d55a3"><path d="m217.3 214.5v-1.1h1.2v1.1l-.3 2h-.6zm2.2 0v-1.1h1.2v1.1l-.3 2h-.6z"/><path d="m223.8 219.5c0-.6.1-1 .1-1.6 0-.3-.2-.7-1.2-.7v-.6c1 0 1.2-.3 1.2-.7 0-.5-.1-1-.1-1.6 0-.9.5-1.2 1.6-1.2h.6v.5h-.4c-.8 0-1 .2-1 .7v1.5c0 .6-.2.9-.8 1 .6.1.8.4.8 1v1.5c0 .5.2.7 1 .7h.4v.5h-.6c-1.1.2-1.6 0-1.6-1z"/><path d="m229 219.5c0-.6.1-1 .1-1.6 0-.3-.2-.7-1.2-.7v-.6c1 0 1.2-.3 1.2-.7 0-.5-.1-1-.1-1.6 0-.9.5-1.2 1.6-1.2h.6v.5h-.4c-.8 0-1 .2-1 .7v1.5c0 .6-.2.9-.8 1 .6.1.8.4.8 1v1.5c0 .5.2.7 1 .7h.4v.5h-.6c-1.1.2-1.6 0-1.6-1z"/><path d="m233.8 218.9-.1.5h-.8v-6.2h1v1.6.8c.4-.4.8-.6 1.3-.6 1.1 0 1.8.9 1.8 2.2 0 1.5-.9 2.3-1.9 2.3-.5 0-.9-.2-1.3-.6zm2.1-1.7c0-.9-.3-1.4-1-1.4-.3 0-.7.2-1 .5v1.9c.3.3.7.4.9.4.6.1 1.1-.4 1.1-1.4z"/><path d="m238 218.2c0-1 .8-1.4 3-1.6 0-.5-.3-.8-1-.8-.5 0-1 .2-1.4.5l-.4-.7c.5-.3 1.2-.6 2-.6 1.2 0 1.9.7 1.9 1.9v2.5h-.8l-.1-.5c-.5.3-1 .6-1.6.6-1 0-1.6-.5-1.6-1.3zm3 0v-.9c-1.5.1-2 .4-2 .9 0 .4.3.5.8.5.4 0 .8-.2 1.2-.5z"/><path d="m243.2 218.8.4-.6c.5.3 1.1.5 1.8.5.6 0 .9-.2.9-.5s-.2-.4-1.2-.6c-1.1-.2-1.7-.6-1.7-1.3s.7-1.3 1.9-1.3c.7 0 1.4.3 1.8.6l-.5.6c-.4-.3-.9-.4-1.4-.4-.6 0-.8.2-.8.5s.3.4 1.1.6c1.4.3 1.7.7 1.7 1.4s-.7 1.3-2 1.3c-.7-.1-1.5-.4-2-.8z"/><path d="m248.4 217.2c0-1.4 1.1-2.3 2.2-2.3 1.3 0 2 .9 2 2v.5h-3.4v-.7h2.8l-.2.2c0-.8-.4-1.3-1.1-1.3s-1.3.5-1.3 1.5.6 1.5 1.5 1.5c.5 0 .8-.1 1.2-.4l.3.6c-.5.3-1.1.5-1.7.5-1.2.2-2.3-.6-2.3-2.1z"/><path d="m253.8 217.2v-3.5h1v3.6c0 .9.4 1.3 1 1.3s1-.4 1-1.3v-3.6h1v3.5c0 1.6-.7 2.3-2 2.3s-2-.7-2-2.3z"/><path d="m259.2 213.7h1.9c1.2 0 2.1.4 2.1 1.7 0 1.2-.9 1.8-2.1 1.8h-.9v2.2h-1zm1.8 2.7c.8 0 1.2-.3 1.2-1s-.4-.9-1.2-.9h-.8v1.9zm.6-.1 1.8 3.1h-1.1l-1.4-2.5z"/><path d="m264.7 213.7h1v4.9h2.7v.9h-3.7z"/><path d="m269.8 220.2h.4c.8 0 1-.2 1-.7s0-.9 0-1.5.2-.9.8-1c-.6-.1-.8-.4-.8-1 0-.5 0-1 0-1.5s-.2-.7-1-.7h-.4v-.5h.6c1.1 0 1.6.3 1.6 1.2 0 .6-.1 1-.1 1.6 0 .3.2.7 1.2.7v.6c-1 0-1.2.3-1.2.7 0 .6.1 1 .1 1.6 0 .9-.5 1.2-1.6 1.2h-.6z"/><path d="m275.1 220.2h.4c.8 0 1-.2 1-.7s0-.9 0-1.5.2-.9.8-1c-.6-.1-.8-.4-.8-1 0-.5 0-1 0-1.5s-.2-.7-1-.7h-.4v-.5h.6c1.1 0 1.6.3 1.6 1.2 0 .6-.1 1-.1 1.6 0 .3.2.7 1.2.7v.6c-1 0-1.2.3-1.2.7 0 .6.1 1 .1 1.6 0 .9-.5 1.2-1.6 1.2h-.6z"/><path d="m283.1 213.2h.9l-2.9 7.6h-.9z"/><path d="m285.4 215.1h.8l.1.5c.4-.3.9-.6 1.4-.6 1.1 0 1.8.9 1.8 2.2 0 1.5-.9 2.3-1.9 2.3-.4 0-.8-.2-1.2-.5v.8 1.4h-1zm3 2.1c0-.9-.3-1.4-1-1.4-.3 0-.7.2-1 .5v1.9c.3.3.7.4.9.4.7.1 1.1-.4 1.1-1.4z"/><path d="m291.1 215.1h.8l.1 1c.4-.7 1.1-1.1 1.8-1.1.3 0 .6.1.8.2l-.2.9c-.3-.1-.5-.1-.8-.1-.6 0-1.2.3-1.6 1.1v2.4h-1v-4.4z"/><path d="m295.7 217.3c0-1.4 1-2.3 2.2-2.3 1.1 0 2.2.8 2.2 2.3 0 1.4-1 2.3-2.2 2.3-1.2-.1-2.2-.9-2.2-2.3zm3.3 0c0-.9-.4-1.4-1.1-1.4s-1.1.6-1.1 1.4c0 .9.4 1.4 1.1 1.4s1.1-.6 1.1-1.4z"/><path d="m300.9 217.3c0-1.4.9-2.3 1.9-2.3.5 0 .8.2 1.2.5v-.7-1.6h1v6.2h-.8l-.1-.5c-.3.3-.8.6-1.3.6-1.1 0-1.9-.8-1.9-2.2zm3.1.9v-1.9c-.3-.3-.6-.4-.9-.4-.6 0-1.1.5-1.1 1.4s.4 1.4 1 1.4c.4 0 .7-.2 1-.5z"/><path d="m306.3 217.8v-2.7h1v2.5c0 .7.2 1 .8 1 .4 0 .7-.2 1.1-.6v-2.9h1v4.3h-.8l-.1-.7c-.4.5-.9.8-1.5.8-1 0-1.5-.6-1.5-1.7z"/><path d="m311.6 217.3c0-1.4 1.1-2.3 2.4-2.3.7 0 1.2.3 1.6.6l-.5.6c-.3-.3-.7-.4-1.1-.4-.9 0-1.5.6-1.5 1.4 0 .9.6 1.4 1.4 1.4.5 0 .9-.2 1.2-.5l.4.6c-.5.4-1.1.7-1.7.7-1.2.1-2.2-.7-2.2-2.1z"/><path d="m317.9 217.7v-1.8h-1.2v-.8h1.2l.1-1.3h.8v1.3h2v.8h-2v1.8c0 .7.3 1 1 1 .4 0 .7-.1.9-.2l.2.7c-.4.1-.8.2-1.4.2-1.2.1-1.6-.6-1.6-1.7z"/><path d="m322 218.8.4-.6c.5.3 1.1.5 1.8.5.6 0 .9-.2.9-.5s-.2-.4-1.2-.6c-1.1-.2-1.7-.6-1.7-1.3s.7-1.3 1.9-1.3c.7 0 1.4.3 1.8.6l-.5.6c-.4-.3-.9-.4-1.4-.4-.6 0-.8.2-.8.5s.3.4 1.1.6c1.4.3 1.7.7 1.7 1.4s-.7 1.3-2 1.3c-.7-.1-1.4-.4-2-.8z"/><path d="m327.7 214.5v-1.1h1.2v1.1l-.3 2h-.6zm2.2 0v-1.1h1.2v1.1l-.3 2h-.6z"/></g><path d="m170 230.7h.4c.8 0 1-.2 1-.7s0-.9 0-1.5.2-.9.8-1c-.6-.1-.8-.4-.8-1 0-.5 0-1 0-1.5s-.2-.7-1-.7h-.4v-.5h.6c1.1 0 1.6.3 1.6 1.2 0 .6-.1 1-.1 1.6 0 .3.2.7 1.2.7v.6c-1 0-1.2.3-1.2.7 0 .6.1 1 .1 1.6 0 .9-.5 1.2-1.6 1.2h-.6z" fill="#343434"/><path d="m159.4 241.2h1.7v-6.4h-1.7v-.5h2.5v7.5h-2.5z" fill="#343434"/><path d="m165.5 241.7c.8-.3 1.1-.8 1.1-1.4l-.1-.9.5.8c-.2.1-.3.2-.5.2-.4 0-.8-.3-.8-.8s.4-.8.8-.8c.6 0 .9.5.9 1.3 0 1.1-.6 1.8-1.7 2.2z" fill="#343434"/><path d="m159.5 246v-1.1h1.2v1.1l-.3 2h-.6zm2.2 0v-1.1h1.2v1.1l-.3 2h-.6z" fill="#9a1d55"/><path d="m164.5 246.6h.8l.1.5c.4-.3.9-.6 1.4-.6 1.1 0 1.8.9 1.8 2.2 0 1.5-.9 2.3-1.9 2.3-.4 0-.8-.2-1.2-.5v.8 1.4h-1zm3.1 2.1c0-.9-.3-1.4-1-1.4-.3 0-.7.2-1 .5v1.9c.3.3.7.4.9.4.6.1 1.1-.4 1.1-1.4z" fill="#9a1d55"/><path d="m169.7 249.8c0-1 .8-1.4 3-1.6 0-.5-.3-.8-1-.8-.5 0-1 .2-1.4.5l-.4-.7c.5-.3 1.2-.6 2-.6 1.2 0 1.9.7 1.9 1.9v2.5h-.8l-.1-.5c-.5.3-1 .6-1.6.6-1-.1-1.6-.6-1.6-1.3zm3-.1v-.9c-1.5.1-2 .4-2 .9 0 .4.3.5.8.5.4 0 .8-.2 1.2-.5z" fill="#9a1d55"/><path d="m176 249.2v-1.8h-1.2v-.8h1.2l.1-1.3h.8v1.3h2v.8h-2v1.8c0 .7.3 1 1 1 .4 0 .7-.1.9-.2l.2.7c-.4.1-.8.2-1.4.2-1.2.1-1.6-.6-1.6-1.7z" fill="#9a1d55"/><path d="m180.3 244.8h1v1.6l-.1.9c.4-.4.9-.7 1.5-.7 1 0 1.4.6 1.4 1.7v2.7h-1v-2.5c0-.7-.2-1-.8-1-.4 0-.7.2-1.1.6v2.9h-1v-6.2z" fill="#9a1d55"/><path d="m185.4 250.4.4-.6c.5.3 1.1.5 1.8.5.6 0 .9-.2.9-.5s-.2-.4-1.2-.6c-1.1-.2-1.7-.6-1.7-1.3s.7-1.3 1.9-1.3c.7 0 1.4.3 1.8.6l-.5.6c-.4-.3-.9-.4-1.4-.4-.6 0-.8.2-.8.5s.3.4 1.1.6c1.4.3 1.7.7 1.7 1.4s-.7 1.3-2 1.3c-.7-.2-1.5-.5-2-.8z" fill="#9a1d55"/><path d="m191 246v-1.1h1.2v1.1l-.3 2h-.6zm2.2 0v-1.1h1.2v1.1l-.3 2h-.6z" fill="#9a1d55"/><path d="m197.1 247.2c0-.5.4-.9.9-.9s.9.4.9.9-.4.9-.9.9-.9-.4-.9-.9zm0 3c0-.5.4-.9.9-.9s.9.4.9.9-.4.9-.9.9c-.5-.1-.9-.4-.9-.9z" fill="#343434"/><path d="m208 251.1c0-.6.1-1 .1-1.6 0-.3-.2-.7-1.2-.7v-.6c1 0 1.2-.3 1.2-.7 0-.5-.1-1-.1-1.6 0-.9.5-1.2 1.6-1.2h.6v.5h-.4c-.8 0-1 .2-1 .7v1.5c0 .6-.2.9-.8 1 .6.1.8.4.8 1v1.5c0 .5.2.7 1 .7h.4v.5h-.6c-1.1.2-1.6-.1-1.6-1z" fill="#343434"/><path d="m170 256.6v-1.1h1.2v1.1l-.3 2h-.6zm2.2 0v-1.1h1.2v1.1l-.3 2h-.6z" fill="#9a1d55"/><path d="m178 255.2h.9l-2.9 7.6h-.9z" fill="#9a1d55"/><path d="m180.2 260.3c0-1 .8-1.4 3-1.6 0-.5-.3-.8-1-.8-.5 0-1 .2-1.4.5l-.4-.7c.5-.3 1.2-.6 2-.6 1.2 0 1.9.7 1.9 1.9v2.5h-.8l-.1-.5c-.5.3-1 .6-1.6.6-1 0-1.6-.6-1.6-1.3zm3-.1v-.9c-1.5.1-2 .4-2 .9 0 .4.3.5.8.5.4.1.8-.1 1.2-.5z" fill="#9a1d55"/><path d="m185.3 259.3c0-1.4.9-2.3 1.9-2.3.5 0 .9.2 1.2.5v-.7-1.6h1v6.2h-.8l-.1-.5c-.3.3-.8.6-1.3.6-1.2.1-1.9-.8-1.9-2.2zm3.1.9v-1.9c-.3-.3-.6-.4-.9-.4-.6 0-1.1.5-1.1 1.4s.4 1.4 1 1.4c.3 0 .7-.1 1-.5z" fill="#9a1d55"/><path d="m190.6 259.3c0-1.4.9-2.3 1.9-2.3.5 0 .9.2 1.2.5v-.7-1.6h1v6.2h-.8l-.1-.5c-.3.3-.8.6-1.3.6-1.2.1-1.9-.8-1.9-2.2zm3 .9v-1.9c-.3-.3-.6-.4-.9-.4-.6 0-1.1.5-1.1 1.4s.4 1.4 1 1.4c.4 0 .7-.1 1-.5z" fill="#9a1d55"/><path d="m196.3 256.6v-1.1h1.2v1.1l-.3 2h-.6zm2.2 0v-1.1h1.2v1.1l-.3 2h-.6z" fill="#9a1d55"/><path d="m202.4 257.7c0-.5.4-.9.9-.9s.9.4.9.9-.4.9-.9.9c-.6 0-.9-.4-.9-.9zm0 3c0-.5.4-.9.9-.9s.9.4.9.9-.4.9-.9.9c-.6 0-.9-.4-.9-.9z" fill="#343434"/><path d="m213.3 261.6c0-.6.1-1 .1-1.6 0-.3-.2-.7-1.2-.7v-.6c1 0 1.2-.3 1.2-.7 0-.5-.1-1-.1-1.6 0-.9.5-1.2 1.6-1.2h.6v.5h-.4c-.8 0-1 .2-1 .7v1.5c0 .6-.2.9-.8 1 .6.1.8.4.8 1v1.5c0 .5.2.7 1 .7h.4v.5h-.6c-1.1.2-1.6-.1-1.6-1z" fill="#343434"/><path d="m180.5 267.1v-1.1h1.2v1.1l-.3 2h-.6zm2.2 0v-1.1h1.2v1.1l-.3 2h-.6z" fill="#9a1d55"/><path d="m185.4 272.7c0-.3.2-.7.7-.9-.2-.1-.4-.4-.4-.7s.2-.6.5-.8c-.3-.2-.6-.6-.6-1.1 0-1 .8-1.5 1.8-1.5.3 0 .5 0 .7.1h1.8v.8h-1c.1.2.3.4.3.7 0 1-.8 1.5-1.7 1.5-.2 0-.4 0-.7-.1-.2.1-.3.2-.3.4 0 .3.3.4.8.4h.9c1.1 0 1.7.3 1.7 1.1 0 .9-1 1.5-2.5 1.5-1.2-.2-2-.6-2-1.4zm3.5-.2c0-.3-.3-.4-.9-.4h-.7c-.3 0-.5 0-.7-.1-.3.2-.4.4-.4.6 0 .4.5.6 1.2.6.9 0 1.5-.3 1.5-.7zm-.7-3.4c0-.5-.4-.9-.8-.9s-.8.3-.8.9c0 .5.4.9.8.9s.8-.4.8-.9z" fill="#9a1d55"/><path d="m190.6 269.8c0-1.4 1.1-2.3 2.2-2.3 1.3 0 2 .9 2 2v.5h-3.4v-.7h2.8l-.2.2c0-.8-.4-1.3-1.1-1.3s-1.3.5-1.3 1.5.6 1.5 1.5 1.5c.5 0 .8-.1 1.2-.4l.3.6c-.5.3-1.1.5-1.7.5-1.2.2-2.3-.7-2.3-2.1z" fill="#9a1d55"/><path d="m197 270.2v-1.8h-1.2v-.8h1.2l.1-1.3h.8v1.3h2v.8h-2v1.8c0 .7.3 1 1 1 .4 0 .7-.1.9-.2l.2.7c-.4.1-.8.2-1.4.2-1.1.2-1.6-.6-1.6-1.7z" fill="#9a1d55"/><path d="m201.6 267.1v-1.1h1.2v1.1l-.3 2h-.6zm2.1 0v-1.1h1.2v1.1l-.3 2h-.6z" fill="#9a1d55"/><path d="m207.6 268.2c0-.5.4-.9.9-.9s.9.4.9.9-.4.9-.9.9-.9-.4-.9-.9zm0 3c0-.5.4-.9.9-.9s.9.4.9.9-.4.9-.9.9-.9-.4-.9-.9z" fill="#343434"/><path d="m218.5 272.1c0-.6.1-1 .1-1.6 0-.3-.2-.7-1.2-.7v-.6c1 0 1.2-.3 1.2-.7 0-.5-.1-1-.1-1.6 0-.9.5-1.2 1.6-1.2h.6v.5h-.4c-.8 0-1 .2-1 .7v1.5c0 .6-.2.9-.8 1 .6.1.8.4.8 1v1.5c0 .5.2.7 1 .7h.4v.5h-.6c-1.1.2-1.6-.1-1.6-1z" fill="#343434"/><path d="m482.2 169.8c-.6-4.4-4.5-7.8-9.5-8.2l-71 1.1c-9.8-.4-17.9 7.1-17.1 15.8l.4 5.2c.6 6.4 5.8 11.7 12.9 12.9l73.9 11.8c6.7 1.1 12.9-3.7 12.7-9.8v-.1c-.1-3.9-2.9-7.3-7-8.5l-32-7.4 26.8-2.1c6-.3 10.6-5.2 9.9-10.7z" fill="#ede7e1"/><path d="m375 144 1.6-16.5-2.1-.2-1.6 16.5z" fill="#cecac7"/><path d="m379.9 124.9c-1.1-2.3-3.9-3.3-6.2-2.2s-3.3 3.9-2.2 6.2 3.9 3.3 6.2 2.2 3.3-3.8 2.2-6.2z" fill="#e56037"/><path d="m371.4 128.8c.5 1.1 1.4 2 2.6 2.5 1.2.1 2.6-.7 3.6-2 1.5-2.1 1.5-5-.1-6.5-.1-.1-.1-.1-.2-.2-1.1-.4-2.4-.4-3.5.1s-2 1.4-2.4 2.5c-.5 1.2-.4 2.5 0 3.6z" fill="#f16b39"/><path d="m393.5 151.6c-5.3-11.2-18.7-16-29.9-10.7s-16 18.7-10.6 29.9c5.3 11.2 18.7 16 29.9 10.7 11.1-5.4 15.9-18.7 10.6-29.9z" fill="#ede7e1"/><path d="m353 170.8c1.1 2.4 2.6 4.5 4.4 6.2.9-.2 1.8-.5 2.6-.9 6.9-3.2 9.8-11.4 6.5-18.3-2.4-5-7.4-7.9-12.7-7.9-3.5 6.2-4.1 13.9-.8 20.9z" fill="#b2cad3"/><path d="m380.6 172.1c-5.7 4.5-13 6.5-20.2 5.6-.9-.1-1.8-.3-2.6-.5 4.1 4 9.5 6.2 15.2 6.3s11.2-1.9 15.4-5.7 6.8-9.1 7.3-14.7c.5-5.7-1.2-11.3-4.7-15.8.2 2.1.2 4.3 0 6.5-1 7.3-4.7 13.8-10.4 18.3z" fill="#231f20" opacity=".13"/><g fill="#e8ebee" opacity=".8"><path d="m352.7 155.9c.1-.2.3-.4.6-.5.2-.1.5-.1.7 0s.4.3.5.5.1.5 0 .7c0 .1-.1.2-.1.3s-.1.2-.1.3c-.1.2-.1.4-.2.7-.1.4-.2.9-.3 1.4-.4 1.9-.4 3.8-.2 5.6.1.9.3 1.9.6 2.8 0 .1 0 .3-.1.4s-.2.2-.3.3c-.1 0-.3 0-.4 0-.1-.1-.2-.2-.3-.3-.3-1-.6-1.9-.8-2.9s-.3-2-.4-3c0-1 0-2.1.1-3.1.1-.5.1-1 .2-1.5.1-.3.1-.5.2-.8 0-.1.1-.3.1-.4s.1-.3.2-.5z" opacity=".3"/><path d="m354.5 170.6c-.1 0-.2 0-.3-.1-.1 0-.1-.1-.2-.2 0-.1 0-.2 0-.3s.1-.2.1-.2.1-.1.2-.1h.3c.1 0 .2.1.2.2.1.1.1.2.1.3s0 .2-.1.3c0 0-.1 0-.3.1z" opacity=".3"/></g><g opacity=".9"><path d="m380.3 160.7c-.9-1.9-3.2-2.7-5.1-1.8s-2.7 3.2-1.8 5.1 3.2 2.7 5.1 1.8 2.7-3.2 1.8-5.1z" fill="#726b65" opacity=".9"/><path d="m379.2 161.2c-.6-1.3-2.1-1.8-3.4-1.2s-1.8 2.1-1.2 3.4 2.1 1.8 3.4 1.2c1.2-.6 1.8-2.1 1.2-3.4z" fill="#ede7e1" opacity=".3"/></g><path d="m340.2 201.9c-1.7-1.2-2.9-3-3.3-5.1s0-4.2 1.1-6 2.9-3 5-3.5l46.9-10.8c1.2-.3 2.5-.3 3.7-.1s2.4.7 3.4 1.4 1.9 1.6 2.6 2.6 1.2 2.2 1.4 3.4c.3 1.2.3 2.5 0 3.7-.2 1.2-.7 2.4-1.4 3.4s-1.6 1.9-2.6 2.6-2.2 1.1-3.4 1.4l-47.4 8.4c-2.2.3-4.3-.2-6-1.4z" fill="#ede7e1"/><path d="m431.6 178.5-1 3.4c-.3 1.1-1 2.1-1.8 2.9-.9.8-1.9 1.3-3.1 1.6l-1.7.3 1.6 11.3 39.9 9.5-41.2-6.5-25.5-4c-1.2-.2-2.4-.5-3.6-.9l-.8-.3-1-.7-2.3.1s-44.7 8-44.2 7.8c19.4-5.4 39.4-9.6 39.8-12.5 1.4-8-6-12-6-12l9.1-2.1 32.6 9 10.7-19.5c.3 0 .5 0 .7.1s.4.3.6.5.3.4.3.7c.1.3 0 .5 0 .8z" fill="#231f20" opacity=".13"/><path d="m425.9 200.9c.3-.3.5-.6.6-1 1.8-10.3-5.6-20.6-5.6-20.6s-14.2-6.4-5.4-.4c6.5 4.4 8 17 7.6 20.4 0 .3 0 .5.1.7s.2.5.4.7.4.3.6.4.5.1.7.1c.3.1.7 0 1-.3z" fill="#f48963"/><path d="m392.4 195.9c-.3-.3-.5-.7-.5-1.1-1-10.4 7.3-20.1 7.3-20.1s14.6-5.2 5.4.1c-6.8 3.9-9.3 16.3-9.2 19.8 0 .3 0 .5-.1.7s-.2.4-.4.6-.4.3-.6.4-.5.1-.7.1c-.6 0-1-.2-1.2-.5z" fill="#f48963"/><path d="m426.2 159-22.7-2.1c-5.1-.5-10.1 2-11.1 5.5l-4.1 14.1c-1 3.4 1.7 6 6.7 6.5l23.7 2.8c5 .5 9.9-1.9 10.9-5.4l3.7-12.7c.9-3.5-2-8.2-7.1-8.7z" fill="#e88061"/><path d="m425.5 158.9-23.4-2.2c-4.4-.4-8.6 1.7-9.5 4.7l-4.3 14.7c-.2.7.4 1.3 1.5 1.4l29.2 2.8c3.4.3 6.7-1.3 7.4-3.6l4.2-14c.6-2.3-1.9-3.5-5.1-3.8z" fill="#f48963"/><g mask="url(#b)"><path d="m417 158.1-4.7 16.3c-.3 1.2.8 2.3 2.6 2.5l.9.1c1.8.2 3.5-.7 3.8-1.9l4.7-16.3z" fill="#4b3f5f"/><path d="m410.9 172.6c-.1-.8-1-1.3-2.1-1.2s-2 .8-1.9 1.5c.1.8 1 1.3 2.1 1.2s1.9-.8 1.9-1.5z" fill="#ede7e1"/><path d="m412.2 167.9c-.1-.8-1-1.3-2.1-1.2s-2 .8-1.9 1.5c.1.8 1 1.3 2.1 1.2 1.1 0 2-.7 1.9-1.5z" fill="#ede7e1"/><g fill="#7d728d"><path d="m417.7 173.2-2.5-.2c-.2 0-.3 0-.5.1-.1.1-.3.2-.3.3l-.2.8c-.1.2.2.5.5.5l2.5.2c.2 0 .3 0 .5-.1.1-.1.3-.2.3-.3l.2-.8c.2-.2-.1-.5-.5-.5z"/><path d="m418.8 169.4-2.5-.2c-.2 0-.3 0-.5.1-.1.1-.3.2-.3.3l-.2.8c-.1.3.2.5.5.5l2.5.2c.2 0 .3 0 .5-.1.1-.1.3-.2.3-.3l.2-.8c.2-.2-.1-.5-.5-.5z"/><path d="m419.9 165.7-2.5-.2c-.2 0-.3 0-.5.1-.1.1-.3.2-.3.3l-.2.8c-.1.2.2.5.5.5l2.5.2c.2 0 .3 0 .5-.1.1-.1.3-.2.3-.3l.2-.8c.2-.3-.1-.5-.5-.5z"/><path d="m421 161.9-2.5-.2c-.2 0-.3 0-.5.1-.1.1-.3.2-.3.3l-.2.8c-.1.2.2.5.5.5l2.5.2c.2 0 .3 0 .5-.1s.3-.2.3-.3l.2-.8c.1-.3-.1-.5-.5-.5z"/></g><path d="m413 159.3-.7-.1c-.5 0-1 .2-1.1.5l-1.4 4.8c-.1.3.2.7.7.7l.7.1c.5 0 1-.2 1.1-.5l1.4-4.8c.2-.3-.2-.6-.7-.7z" fill="#605379"/><path d="m394.5 154.8-5.4 18.5 4.6.4c5.3.5 10.5-2 11.6-5.7l3.4-11.9z" fill="#605379"/></g><path clip-rule="evenodd" d="m487.5 179.1h-4c-1.4.1-2.3-1-2.4-2.5l.5-10.6c-.1-1.4 1.3-2.5 2.5-2.4h4c1.4-.1 2.3 1 2.4 2.5l-.5 10.6c-.2 1.2-1.3 2.5-2.5 2.4" fill="#f89e7a"/><path clip-rule="evenodd" d="m511.4 180.5 12.8-8.6s.2-.2 0-.4l-11.8-9.1c-4.9-3.7-11.8-2.8-15.5 2-3.7 4.9-2.8 11.8 1.7 15.5 3.6 3.3 8.7 3.2 12.8.6" fill="#e9806e"/><path clip-rule="evenodd" d="m505.3 177.1 8.2-5.6-7.7-5.8c-3.2-2.5-7.7-1.8-10.2 1.4s-2 7.9 1.2 10c2.4 2 6 1.9 8.5 0" fill="#f79d7a"/><path clip-rule="evenodd" d="m500.3 174.5 4.8-3.1-4.3-3.5c-1.9-1.4-4.4-.8-5.7.6-1.4 1.9-1.2 4.3.6 5.7 1.2 1.2 3.2 1.4 4.6.3" fill="#fff3da"/><path clip-rule="evenodd" d="m482.1 182.8h-6.3c-2.2 0-3.7-1.8-3.4-3.8l.6-16.3c.2-2 1.8-3.7 4-3.6l6.1-.2c2.2 0 3.7 1.8 3.4 3.8l-.6 16.3c0 2.2-2 3.8-3.8 3.8" fill="#325662"/><path clip-rule="evenodd" d="m484 168c.1.6-.5 1.2-1.1 1.3s-1.2-.5-1.3-1.1c.1-.8.7-1.3 1.4-1.5.5.3 1.1.5 1 1.3" fill="#dbe8f1"/><path clip-rule="evenodd" d="m484 164c.1.6-.5 1.2-1.1 1.3s-1.2-.5-1.3-1.1.5-1.2 1.1-1.3c.8.1 1.4.3 1.3 1.1" fill="#dbe8f1"/><path clip-rule="evenodd" d="m483.1 176.4-.8-.1c-.4 0-.6-.3-.4-.4v-4c0-.4.3-.6.4-.4l.8.1c.4 0 .6.3.4.4v4c.1.1-.2.3-.4.4" fill="#dbe8f1"/><path clip-rule="evenodd" d="m484.4 209.1-4-.4c-1.2-.1-2.3-1.4-2.2-2.6l1.3-10.6c.1-1.2 1.4-2.3 2.6-2.2l4 .4c1.2.1 2.3 1.4 2.2 2.6l-1.3 10.6c.1 1.4-1.1 2.1-2.6 2.2" fill="#f89e7a"/><path clip-rule="evenodd" d="m508.1 212.5 12.9-8s.2-.2 0-.4l-11.5-9.6c-4.6-3.9-11.8-3.2-15.7 1.4s-3.6 11.7 1 15.6c4.2 3.3 9.2 3.6 13.3 1" fill="#e9806e"/><path clip-rule="evenodd" d="m502.4 209.1 8.6-5.2-7.4-6.4c-3.2-2.5-7.6-2.2-10.2 1-2.5 3.2-2.2 7.6.6 10.1 2.2 1.9 5.6 2 8.4.5" fill="#f79d7a"/><path clip-rule="evenodd" d="m497.4 206.1 4.9-2.9-4.3-3.5c-1.7-1.6-4.3-1.2-5.7.6-1.6 1.7-1.2 4.3.4 5.9 1.4.8 3.2.8 4.7-.1" fill="#fff3da"/><path clip-rule="evenodd" d="m478.7 211.9-6.2-.8c-2-.2-3.4-2-3.2-4l2.2-16.1c.2-2 2.2-3.6 4.2-3.4l6.2.8c2 .2 3.4 2 3.2 4l-2.2 16.1c-.2 2-2.2 3.6-4.2 3.4" fill="#325662"/><path clip-rule="evenodd" d="m480 207.2-.8-.1c-.4 0-.6-.3-.4-.4l.2-4.2c0-.4.3-.6.4-.4l.8.1c.4 0 .6.3.4.4l-.2 4.2c.2.2-.2.6-.4.4" fill="#dbe8f1"/><g mask="url(#c)"><g opacity=".5"><g clip-rule="evenodd"><path d="m600.2 187.8-61.9-.9h-.1c-1 0-1.8.8-1.8 1.8s.8 1.8 1.8 1.8l61.9-.9v-1.8z" fill="#1e3a3f"/><path d="m536.4 188.7c0 1.1.9 1.8 1.9 1.8-1 0-1.8-.8-1.9-1.8 0-1 .8-1.8 1.8-1.8h.1-.1c-1 0-1.8.8-1.8 1.8z" fill="#ecf1f4"/><path d="m536.4 188.7c0 1 .8 1.8 1.8 1.8l43.5-1.4c.2 0 .4-.2.4-.4 0-.2-.2-.4-.4-.4l-43.5-1.4h-.1c-.9 0-1.7.8-1.7 1.8z" fill="#326e71"/></g><g mask="url(#e)"><path clip-rule="evenodd" d="m537.1 183.4 1.8 3.3 3.3 1.8-3.3 1.8-1.8 3.3-1.8-3.3-3.3-1.8 3.3-1.8z" fill="#b2cad3"/></g><path clip-rule="evenodd" d="m600.2 216.8-65.7-1h-.1c-1 0-1.8.8-1.8 1.8s.8 1.8 1.8 1.8l65.7-1v-1.6z" fill="#443654"/><path clip-rule="evenodd" d="m532.6 217.6c0 1.1.9 1.8 1.9 1.8-1 0-1.9-.8-1.9-1.8 0-1 .8-1.8 1.8-1.8h.1-.1c-1 0-1.8.8-1.8 1.8z" fill="#e1dbe5"/><path clip-rule="evenodd" d="m532.6 217.6c0 1 .8 1.8 1.8 1.8l43.6-1.4c.2 0 .4-.2.4-.4 0-.2-.2-.4-.4-.4l-43.5-1.4h-.1c-1 0-1.8.8-1.8 1.8z" fill="#574177"/><g mask="url(#f)"><path clip-rule="evenodd" d="m533.3 212.4 1.8 3.3 3.3 1.8-3.3 1.8-1.8 3.3-1.8-3.3-3.3-1.8 3.3-1.8z" fill="#86769b"/></g><path clip-rule="evenodd" d="m600.2 202.8-33.1-.5h-.1c-1 0-1.8.8-1.8 1.8s.8 1.8 1.8 1.8l33.1-.5v-2.6z" fill="#bd4f35"/><path clip-rule="evenodd" d="m565.2 204.2c0 1.1.9 1.8 1.9 1.8-1 0-1.8-.8-1.9-1.8.1 0 .1 0 0 0 0-1 .8-1.8 1.8-1.8h.1-.1c-1 0-1.8.8-1.8 1.8z" fill="#fee7dd"/><path clip-rule="evenodd" d="m600.2 203.4-33.1-1.1h-.1c-1 0-1.8.8-1.8 1.8 0 1 .8 1.8 1.8 1.8l33.1-1.1v-1.4z" fill="#ca5f39"/><g mask="url(#g)"><path clip-rule="evenodd" d="m565.9 198.9 1.8 3.3 3.3 1.8-3.3 1.8-1.8 3.3-1.8-3.3-3.3-1.8 3.3-1.8z" fill="#f48658"/></g><path clip-rule="evenodd" d="m600.2 173.5-50.5-.8h-.1c-1 0-1.8.8-1.8 1.8s.8 1.8 1.8 1.8l50.5-.8v-2z" fill="#bd4f35"/><path clip-rule="evenodd" d="m547.8 174.6c0 1.1.9 1.8 1.9 1.8-1 0-1.8-.8-1.9-1.8.1 0 .1 0 0 0 0-1 .8-1.8 1.8-1.8h.1-.1c-1 0-1.8.8-1.8 1.8z" fill="#fee7dd"/><path clip-rule="evenodd" d="m547.9 174.6c0 1 .8 1.8 1.8 1.8l43.5-1.4c.2 0 .4-.2.4-.4 0-.2-.2-.4-.4-.4l-43.5-1.4h-.1c-.9 0-1.7.8-1.7 1.8z" fill="#ca5f39"/><g mask="url(#h)"><path clip-rule="evenodd" d="m548.5 169.3 1.8 3.3 3.3 1.8-3.3 1.8-1.8 3.3-1.8-3.3-3.3-1.8 3.3-1.8z" fill="#f48658"/></g></g><g opacity=".5"><g clip-rule="evenodd"><path d="m600.2 90-88.8-1.3h-.1c-1 0-1.8.8-1.8 1.8s.8 1.8 1.8 1.8l88.8-1.3v-1z" fill="#1e3a3f"/><path d="m509.5 90.5c0 1.1.9 1.8 1.9 1.8-1 0-1.9-.8-1.9-1.8 0-1 .8-1.8 1.8-1.8h.1-.1c-1 0-1.8.8-1.8 1.8z" fill="#ecf1f4"/><path d="m509.5 90.5c0 1 .8 1.8 1.8 1.8l43.5-1.4c.2 0 .4-.2.4-.4 0-.2-.2-.4-.4-.4l-43.5-1.4h-.1c-.9 0-1.7.8-1.7 1.8z" fill="#326e71"/></g><g mask="url(#i)"><path clip-rule="evenodd" d="m510.2 85.3 1.8 3.3 3.3 1.8-3.3 1.8-1.8 3.3-1.8-3.3-3.3-1.8 3.3-1.8z" fill="#b2cad3"/></g><path clip-rule="evenodd" d="m501.5 116.3 95.6 1.4c.2 0 .4.2.4.4s-.2.4-.4.4l-95.6 1.4c-1 0-1.8-.8-1.8-1.8s.8-1.8 1.8-1.8z" fill="#443654"/><path clip-rule="evenodd" d="m499.6 118.1c0 1.1.9 1.8 1.9 1.8-1 0-1.8-.8-1.9-1.8.1 0 .1 0 0 0 0-1 .8-1.8 1.8-1.8h.1-.1c-1 0-1.8.8-1.8 1.8z" fill="#e1dbe5"/><path clip-rule="evenodd" d="m499.7 118.1c0 1 .8 1.8 1.8 1.8l43.5-1.4c.2 0 .4-.2.4-.4 0-.2-.2-.4-.4-.4l-43.5-1.4h-.1c-.9 0-1.7.8-1.7 1.8z" fill="#574177"/><g mask="url(#j)"><path clip-rule="evenodd" d="m500.3 112.8 1.8 3.3 3.3 1.8-3.3 1.8-1.8 3.3-1.8-3.3-3.3-1.8 3.3-1.8z" fill="#86769b"/></g><path clip-rule="evenodd" d="m600.2 101.8-66-1h-.1c-1 0-1.8.8-1.8 1.8s.8 1.8 1.8 1.8l66-1v-1.6z" fill="#bd4f35"/><path clip-rule="evenodd" d="m532.3 102.6c0 1.1.9 1.8 1.9 1.8-1 0-1.9-.8-1.9-1.8 0-1 .8-1.8 1.8-1.8h.1-.2c-.9 0-1.7.8-1.7 1.8z" fill="#fee7dd"/><path clip-rule="evenodd" d="m532.3 102.6c0 1 .8 1.8 1.8 1.8l43.5-1.4c.2 0 .4-.2.4-.4 0-.2-.2-.4-.4-.4l-43.5-1.4h-.1c-.9 0-1.7.8-1.7 1.8z" fill="#ca5f39"/><g mask="url(#k)"><path clip-rule="evenodd" d="m533 97.4 1.8 3.3 3.3 1.8-3.3 1.8-1.8 3.3-1.8-3.3-3.3-1.8 3.3-1.8z" fill="#f48658"/></g><path clip-rule="evenodd" d="m501.3 77.9 95.6 1.4c.2 0 .4.2.4.4s-.2.4-.4.4l-95.6 1.4c-1 0-1.8-.8-1.8-1.8-.1-.9.7-1.8 1.8-1.8z" fill="#bd4f35"/><path clip-rule="evenodd" d="m499.4 79.7c0 .1 0 .1 0 0 0 1.1.9 1.8 1.9 1.8-1 .1-1.8-.7-1.9-1.8 0-1 .8-1.8 1.8-1.8h.1-.1c-1 .1-1.8.9-1.8 1.8z" fill="#fee7dd"/><path clip-rule="evenodd" d="m499.4 79.7s0 .1 0 0c0 1 .8 1.8 1.8 1.8l43.5-1.4c.2 0 .4-.2.4-.4 0-.2-.2-.4-.4-.4l-43.5-1.4h-.1c-.9 0-1.7.8-1.7 1.8z" fill="#ca5f39"/><g mask="url(#l)"><path clip-rule="evenodd" d="m500.1 74.5 1.8 3.3 3.3 1.8-3.3 1.8-1.8 3.3-1.8-3.3-3.3-1.8 3.3-1.8z" fill="#f48658"/></g></g><g clip-rule="evenodd"><path d="m600.2 60.6-59.3-.9h-.1c-1.7 0-3.1 1.5-3.1 3.2s1.5 3.1 3.2 3.1l59.3-.9z" fill="#1e3a3f"/><path d="m537.6 62.8v.1c.1 1.7 1.5 3.1 3.2 3-1.6.1-3.1-1.3-3.2-3.1.1.1.1.1 0 0 .1-1.7 1.4-3.1 3.2-3.1h.1-.2c-1.7.1-3.1 1.4-3.1 3.1z" fill="#ecf1f4"/><path d="m600.2 61.6-59.3-1.9h-.1c-1.7 0-3.1 1.4-3.1 3.1 0 1.7 1.5 3.1 3.2 3.1l59.3-1.9z" fill="#326e71"/></g><g mask="url(#m)"><path clip-rule="evenodd" d="m538.8 53.8 3.2 5.7 5.8 3.1-5.7 3.2-3.1 5.8-3.2-5.7-5.8-3.1 5.7-3.2z" fill="#b2cad3"/></g><path clip-rule="evenodd" d="m600.2 151.5-73-1.1h-.1c-1.7 0-3.1 1.5-3.1 3.2s1.5 3.1 3.2 3.1l73-1.1z" fill="#443654"/><path clip-rule="evenodd" d="m523.9 153.5v.1c.1 1.7 1.5 3.1 3.2 3-1.6.1-3.1-1.3-3.2-3.1.1 0 .1 0 0 0 .1-1.7 1.4-3.1 3.2-3.1h.1-.2c-1.7 0-3.1 1.4-3.1 3.1z" fill="#e1dbe5"/><path clip-rule="evenodd" d="m600.2 152.8-73-2.4h-.1c-1.7 0-3.1 1.4-3.1 3.1 0 1.7 1.5 3.1 3.2 3.1l73-2.4z" fill="#574177"/><g mask="url(#n)"><path clip-rule="evenodd" d="m525.1 144.4 3.2 5.7 5.8 3.1-5.7 3.2-3.1 5.8-3.2-5.7-5.8-3.1 5.7-3.2z" fill="#86769b"/></g><path clip-rule="evenodd" d="m600.2 131.8-111-1.7h-.1c-1.7 0-3.1 1.5-3.1 3.2s1.5 3.1 3.2 3.1l111-1.7z" fill="#bd4f35"/><path clip-rule="evenodd" d="m485.9 133.3v.1c.1 1.7 1.5 3.1 3.2 3-1.7.1-3.1-1.3-3.2-3.1.1 0 .1 0 0 0 .1-1.7 1.4-3.1 3.2-3.1h.1-.2c-1.7 0-3.1 1.4-3.1 3.1z" fill="#fee7dd"/><path clip-rule="evenodd" d="m486 133.3c0 1.8 1.5 3.2 3.2 3.1l75.3-2.5c.3 0 .6-.3.6-.6 0-.4-.3-.7-.6-.7l-75.3-2.5h-.1c-1.7.1-3.1 1.5-3.1 3.2z" fill="#ca5f39"/><g mask="url(#o)"><path clip-rule="evenodd" d="m487.1 124.2 3.2 5.7 5.8 3.1-5.7 3.2-3.1 5.8-3.2-5.7-5.8-3.1 5.7-3.2z" fill="#f48658"/></g><path clip-rule="evenodd" d="m600.2 234.8-107.9-1.6h-.1c-1.7 0-3.1 1.5-3.1 3.2s1.5 3.1 3.2 3.1l107.9-1.6z" fill="#bd4f35"/><path clip-rule="evenodd" d="m489.1 236.4v.1c.1 1.7 1.5 3.1 3.2 3-1.7 0-3.1-1.4-3.2-3.1.1 0 .1 0 0 0 .1-1.7 1.4-3.1 3.2-3.1h.1-.2c-1.8 0-3.1 1.4-3.1 3.1z" fill="#fee7dd"/><path clip-rule="evenodd" d="m489.2 236.4c0 1.8 1.5 3.2 3.2 3.1l75.3-2.5c.3 0 .6-.3.6-.6 0-.4-.3-.7-.6-.7l-75.3-2.5h-.1c-1.8 0-3.1 1.4-3.1 3.2z" fill="#ca5f39"/><g mask="url(#p)"><path clip-rule="evenodd" d="m490.3 227.3 3.2 5.7 5.8 3.1-5.7 3.2-3.1 5.8-3.2-5.7-5.8-3.1 5.7-3.2z" fill="#f48658"/></g></g></svg>